<?xml version="1.0" encoding="UTF-8" standalone="no"?>
<!DOCTYPE svg PUBLIC "-//W3C//DTD SVG 1.1//EN" "http://www.w3.org/Graphics/SVG/1.1/DTD/svg11.dtd">
<svg width="100%" height="100%" viewBox="0 0 814 271" version="1.1" xmlns="http://www.w3.org/2000/svg" xmlns:xlink="http://www.w3.org/1999/xlink" xml:space="preserve" xmlns:serif="http://www.serif.com/" style="fill-rule:evenodd;clip-rule:evenodd;stroke-linecap:round;stroke-linejoin:round;stroke-miterlimit:2;">
    <g transform="matrix(0.24,0,0,0.24,0,0)">
        <g id="BLACK">
            <path id="LINE" d="M3042.36,460.108L3195.9,460.108M2211.37,530.744C2214.58,530.177 2216.73,527.114 2216.16,523.902M2402.89,557.539C2401.35,557.811 2399.98,558.685 2399.08,559.968C2398.18,561.25 2397.83,562.838 2398.1,564.38M1886.93,840.529C1886.66,838.986 1885.78,837.615 1884.5,836.717C1883.22,835.818 1881.63,835.466 1880.09,835.738M1805.07,440.475L1831.74,591.686M1896.2,652.879C1895.93,651.337 1895.05,649.965 1893.77,649.067C1892.49,648.169 1890.9,647.817 1889.36,648.089M2375.36,111.448L2402.01,262.659M1067.24,759.452C1068.79,759.724 1070.37,759.373 1071.66,758.474C1072.94,757.576 1073.81,756.204 1074.09,754.662M364.58,904.202C364.581,907.464 367.225,910.108 370.486,910.108M2564.85,233.947L2538.2,82.736M297.06,454.202L297.06,300.659M1095.96,596.61L944.747,569.948M1517.25,832.803L1543.91,681.593M1245.82,394.563L1094.61,367.901M1809.87,433.634C1806.66,434.2 1804.51,437.264 1805.08,440.476M723.165,530.876C721.622,530.604 720.035,530.955 718.751,531.854C717.468,532.752 716.595,534.124 716.323,535.667M2654.53,452.601C2656.07,452.329 2657.45,451.456 2658.34,450.173C2659.24,448.89 2659.59,447.303 2659.32,445.76M374.986,235.108L528.53,235.108M2408.85,267.45L2560.07,240.787M1766.85,837.594L1918.07,810.932M1565.44,883.398C1566.01,880.186 1563.87,877.124 1560.66,876.557M979.199,286.985C982.411,287.552 985.474,285.407 986.04,282.195M1711.82,883.398L1717.03,912.942L1743.69,1064.15L1752.83,1115.96M1024.24,355.493L873.026,328.83M3065.4,519.753L3037.28,519.753M2139.65,771.86C2141.2,771.589 2142.57,770.715 2143.47,769.432C2144.36,768.149 2144.72,766.562 2144.44,765.019M2976.76,255.108L3014.78,255.108M978.924,773.982C977.382,773.71 975.794,774.062 974.511,774.96C973.228,775.858 972.355,777.23 972.083,778.772M1250.61,401.405C1250.88,399.862 1250.53,398.275 1249.63,396.992C1248.73,395.709 1247.36,394.835 1245.82,394.563M1873.45,199.948C1872.89,196.736 1869.82,194.591 1866.61,195.158M2892.43,300.659C2892.43,299.093 2891.81,297.591 2890.7,296.483C2889.59,295.376 2888.09,294.754 2886.53,294.754M1455.86,209.126C1456.13,207.584 1455.78,205.996 1454.88,204.713C1453.98,203.43 1452.61,202.557 1451.07,202.285M2658.74,685.108L2812.28,685.108M844.313,491.673L995.523,518.335M1470.74,860.701L1471.76,854.885M1922.87,804.089L1896.19,652.879M2248.24,362.334L2274.9,513.544M2181.3,596.609C2178.09,597.176 2175.95,600.239 2176.51,603.451M866.186,333.621L839.522,484.832M2789.78,230.607C2793.04,230.607 2795.69,227.964 2795.69,224.702M3195.9,460.108C3199.17,460.108 3201.81,457.464 3201.81,454.202M1359.19,810.932L1510.41,837.594M807.446,323.263C807.718,321.721 807.366,320.133 806.467,318.85C805.569,317.567 804.198,316.694 802.655,316.422M2652.83,525.659L2652.83,679.202M2912.69,904.202L2912.69,750.659M464.986,519.753C463.42,519.753 461.918,520.375 460.81,521.483C459.703,522.591 459.081,524.093 459.081,525.659M944.746,569.948C943.204,569.675 941.616,570.027 940.333,570.925C939.05,571.824 938.177,573.195 937.905,574.738M374.986,69.753C373.42,69.753 371.918,70.375 370.81,71.483C369.703,72.591 369.081,74.093 369.081,75.659M3086.24,255.108L3127.28,255.108M2625.82,289.76L2474.61,316.422M601.616,214.411C601.05,217.623 603.195,220.685 606.407,221.252M1744.12,384.662L1895.32,358M1994.58,562.973L1967.91,411.763M1466.97,848.044L1397.18,835.738M1012.7,130.984C1013.27,127.773 1011.12,124.71 1007.91,124.143M2636.24,65.253C2634.67,65.253 2633.17,65.875 2632.06,66.983C2630.95,68.091 2630.33,69.593 2630.33,71.159M384.831,300.659L384.831,454.202M390.736,294.753C389.17,294.753 387.668,295.375 386.56,296.483C385.453,297.591 384.831,299.093 384.831,300.659M149.986,235.108L303.53,235.108M2582.82,693.719C2586.03,693.153 2588.17,690.089 2587.61,686.877M624.435,679.202L624.435,525.659M3130.95,679.202C3130.95,682.464 3133.6,685.108 3136.86,685.108M2158.57,143.678C2155.36,144.245 2153.21,147.308 2153.78,150.52M628.278,63.2L601.616,214.411M1715.39,221.82C1713.85,222.092 1712.48,222.966 1711.58,224.249C1710.68,225.532 1710.33,227.119 1710.6,228.661M2366.03,725.948L2339.36,574.737M1451.07,202.285L1299.87,175.623M2886.53,460.107C2889.79,460.107 2892.43,457.464 2892.43,454.202M1234.28,170.055C1234.56,168.513 1234.2,166.926 1233.31,165.643C1232.41,164.36 1231.04,163.486 1229.49,163.214M3318.53,519.753L3290.4,519.753M291.154,294.753L137.611,294.753M849.86,102.271L823.198,253.482M1094.61,367.901C1091.4,367.334 1088.33,369.479 1087.77,372.691M524.03,744.753L370.486,744.753M1806.54,860.701L1716.61,876.557M2892.43,454.202L2892.43,300.659M2437.74,484.832L2411.09,333.621M1112.62,791.56L1111.6,797.376M1716.61,876.557C1715.07,876.828 1713.7,877.702 1712.8,878.985C1711.9,880.268 1711.55,881.856 1711.82,883.398M2347.36,1017.98L2339.11,971.159L2310.4,808.317L2305.18,778.772M2274.9,513.545C2275.17,515.087 2276.05,516.458 2277.33,517.357C2278.61,518.255 2280.2,518.607 2281.74,518.335M2309.77,117.016L2158.57,143.678M1389.32,846.346L1193.02,811.732M1738.14,674.751C1734.93,675.318 1732.79,678.381 1733.35,681.593M861.986,951.732C863.529,952.004 865.116,951.652 866.399,950.753C867.683,949.855 868.556,948.483 868.828,946.94M528.53,235.107C531.791,235.107 534.435,232.464 534.435,229.202M459.08,679.202C459.081,682.464 461.725,685.108 464.986,685.108M1560.66,876.557L1470.74,860.701M895.491,795.73C895.763,794.187 895.411,792.6 894.513,791.317C893.614,790.034 892.243,789.16 890.7,788.888M1189.25,799.076L1119.46,786.77M3324.43,679.202L3324.43,525.659M1381.07,652.879L1354.41,804.089M1100.75,603.451C1101.02,601.909 1100.67,600.321 1099.77,599.038C1098.87,597.755 1097.5,596.882 1095.96,596.61M464.986,685.108L618.53,685.108M606.407,221.252L757.617,247.914M2818.19,679.202L2818.19,525.659M1445.53,591.686L1472.19,440.475M1710.61,228.661L1737.27,379.872M791.121,91.914C791.686,88.702 789.542,85.64 786.331,85.072M1111.6,797.376L978.924,773.982M149.706,525.659L149.706,679.202M2531.36,77.945L2380.14,104.608M384.83,454.202C384.831,457.464 387.475,460.108 390.736,460.108M2877.83,679.202C2877.83,682.464 2880.48,685.108 2883.74,685.108M780.784,474.473L807.446,323.263M2636.24,230.608L2789.78,230.608M2031.44,394.563C2028.23,395.13 2026.09,398.193 2026.65,401.405M2560.94,535.667C2560.66,534.124 2559.79,532.753 2558.51,531.855C2557.22,530.956 2555.64,530.604 2554.1,530.876M1438.68,596.476C1440.23,596.749 1441.82,596.397 1443.1,595.498C1444.38,594.6 1445.25,593.229 1445.53,591.686M1397.18,835.738C1395.64,835.466 1394.05,835.818 1392.77,836.716C1391.48,837.615 1390.61,838.986 1390.34,840.529M1200.78,326.056C1203.99,326.622 1207.06,324.478 1207.62,321.266M1936.98,182.749C1933.77,183.316 1931.62,186.379 1932.19,189.591M544.28,294.753L390.736,294.753M1065.89,530.743L1217.11,557.406M986.04,282.195L1012.7,130.984M3071.31,679.202L3071.31,525.659M2560.07,240.786C2561.61,240.515 2562.98,239.641 2563.88,238.359C2564.78,237.076 2565.13,235.489 2564.86,233.946M149.986,69.753C146.725,69.753 144.081,72.397 144.081,75.659M2474.61,316.422C2473.06,316.694 2471.69,317.567 2470.8,318.85C2469.9,320.133 2469.55,321.721 2469.82,323.263M2906.78,910.107C2910.04,910.108 2912.69,907.464 2912.69,904.202M1889.36,648.089L1738.14,674.752M2861.24,255.108L2874.08,255.108M2572.31,762.132C2571.74,758.921 2568.68,756.777 2565.47,757.342M155.611,685.108L309.154,685.108M3290.4,519.753L3164.98,519.753M2795.69,224.702L2795.69,71.159M689.66,686.877C689.095,690.089 691.239,693.152 694.451,693.719M2380.14,104.608C2376.93,105.175 2374.79,108.237 2375.35,111.449M2432.96,491.672C2434.5,491.4 2435.87,490.527 2436.77,489.244C2437.67,487.961 2438.02,486.373 2437.75,484.831M2727.08,454.202C2727.08,457.464 2729.72,460.108 2732.98,460.108M544.279,460.107C547.541,460.108 550.185,457.464 550.185,454.202M2912.69,750.659C2912.69,749.093 2912.07,747.591 2910.96,746.483C2909.85,745.376 2908.35,744.754 2906.78,744.754M2386.57,788.888C2383.36,789.455 2381.21,792.518 2381.78,795.73M2338.48,279.858C2340.02,279.586 2341.39,278.713 2342.29,277.43C2343.19,276.147 2343.54,274.559 2343.27,273.017M2911.86,685.108L3037.28,685.108M1387.91,648.089C1386.36,647.817 1384.78,648.169 1383.49,649.067C1382.21,649.965 1381.34,651.337 1381.07,652.879M618.53,519.753L464.986,519.753M2305.18,778.772C2304.91,777.23 2304.03,775.858 2302.75,774.96C2301.47,774.062 2299.88,773.71 2298.34,773.982M1316.19,406.972C1314.65,406.699 1313.06,407.051 1311.78,407.95C1310.49,408.848 1309.62,410.22 1309.35,411.762M678.287,913.343C678.015,914.885 678.367,916.473 679.265,917.756C680.164,919.039 681.535,919.913 683.078,920.184M1967.92,411.762C1967.35,408.551 1964.29,406.407 1961.08,406.972M2874.08,255.108L2952.5,255.108M131.706,454.202C131.706,457.464 134.35,460.107 137.611,460.108M1159.49,613.808L1132.82,765.019M3164.98,519.753L3136.86,519.753M529.935,904.202L529.935,750.659M773.942,479.264C775.484,479.536 777.072,479.185 778.355,478.286C779.638,477.388 780.511,476.016 780.783,474.474M2398.11,564.38L2424.76,715.591M1880.08,835.738L1810.29,848.044M3201.81,454.202L3201.81,300.659M309.435,75.659C309.435,74.093 308.813,72.591 307.705,71.483C306.598,70.376 305.096,69.754 303.529,69.754M2587.6,686.877L2560.94,535.666M868.828,946.94L895.49,795.73M1295.66,793.732L1322.33,642.522M1074.08,754.661L1100.75,603.451M2424.76,715.591C2425.03,717.133 2425.9,718.505 2427.19,719.403C2428.47,720.301 2430.06,720.653 2431.6,720.381M1207.62,321.265L1234.28,170.055M622.731,452.602L773.941,479.264M2789.78,65.253L2636.24,65.253M1539.12,674.752L1387.91,648.089M1866.61,195.158L1715.4,221.82M874.375,557.539L723.165,530.877M635.12,58.41C631.908,57.844 628.846,59.989 628.279,63.2M1322.33,642.522C1322.6,640.979 1322.25,639.392 1321.35,638.109C1320.45,636.826 1319.08,635.952 1317.54,635.681M2408.43,946.94C2409,950.152 2412.06,952.297 2415.28,951.731M1137.62,771.861L1288.83,798.523M1760.02,832.804C1760.59,836.015 1763.65,838.16 1766.86,837.594M1981.6,793.733C1982.16,796.944 1985.23,799.089 1988.44,798.523M155.611,519.754C154.045,519.754 152.543,520.376 151.435,521.483C150.328,522.591 149.706,524.093 149.706,525.659M303.53,69.753L149.986,69.753M534.435,75.659C534.435,74.093 533.813,72.591 532.705,71.483C531.598,70.376 530.096,69.754 528.53,69.754M937.906,574.737L911.242,725.948M534.435,229.202L534.435,75.659M2117.78,613.808C2117.21,610.597 2114.15,608.453 2110.93,609.018M3226.94,255.108L3239.78,255.108M144.08,229.202C144.081,232.464 146.725,235.108 149.986,235.108M2565.48,757.343L2386.57,788.889M852.504,715.591L879.166,564.38M845.662,720.381C847.204,720.654 848.792,720.302 850.075,719.403C851.358,718.505 852.231,717.133 852.503,715.591M390.736,460.108L544.28,460.108M911.243,725.948C910.971,727.491 911.322,729.078 912.221,730.361C913.119,731.644 914.49,732.518 916.033,732.79M1354.41,804.09C1354.14,805.632 1354.49,807.22 1355.39,808.503C1356.29,809.786 1357.66,810.66 1359.2,810.931M2110.94,609.019L1959.73,635.681M2855.33,249.202C2855.33,252.464 2857.98,255.108 2861.24,255.108M757.617,247.914C760.829,248.481 763.892,246.336 764.458,243.124M1989.78,569.814C1991.33,569.542 1992.7,568.669 1993.6,567.386C1994.49,566.103 1994.85,564.515 1994.57,562.973M1078.28,136.551C1075.07,135.986 1072.01,138.13 1071.44,141.342M2469.82,323.263L2496.48,474.473M3290.4,685.108L3318.53,685.108M1071.44,141.342L1044.78,292.553M1954.93,642.522L1981.6,793.732M890.699,788.889L711.792,757.343M370.486,910.108L524.03,910.108M2298.34,773.982L2228.56,786.288L2165.66,797.376M1293.02,180.413L1266.36,331.624M3318.53,685.107C3321.79,685.107 3324.43,682.464 3324.43,679.202M1988.44,798.523L2139.66,771.861M2496.49,474.474C2496.76,476.016 2497.63,477.388 2498.91,478.286C2500.2,479.184 2501.78,479.536 2503.33,479.264M873.026,328.83C869.814,328.264 866.751,330.408 866.185,333.62M3036.45,300.659L3036.45,454.202M2503.33,479.264L2654.53,452.602M618.53,685.107C621.791,685.107 624.435,682.464 624.435,679.202M2332.52,569.948L2181.31,596.61M2883.74,685.108L2911.86,685.108M528.53,69.753L374.986,69.753M3130.95,525.659L3130.95,679.202M1900.12,351.159L1873.45,199.948M704.95,762.132L678.287,913.343M309.435,229.202L309.435,75.659M1194.04,805.917C1194.32,804.374 1193.96,802.787 1193.07,801.504C1192.17,800.221 1190.8,799.347 1189.25,799.075M309.154,519.753L155.611,519.753M2732.98,294.753C2731.42,294.753 2729.91,295.375 2728.81,296.483C2727.7,297.591 2727.08,299.093 2727.08,300.659M2121.69,312.088L2095.03,160.878M2659.33,445.761L2632.66,294.55M2883.74,519.753C2882.17,519.753 2880.67,520.375 2879.56,521.483C2878.45,522.591 2877.83,524.093 2877.83,525.659M1510.4,837.594C1511.94,837.866 1513.53,837.514 1514.82,836.616C1516.1,835.717 1516.97,834.346 1517.24,832.803M2157.8,786.77L2088.02,799.076M1282.69,562.973C1282.42,564.515 1282.77,566.103 1283.67,567.386C1284.57,568.669 1285.94,569.542 1287.48,569.814M3014.78,255.108L3086.24,255.108M995.524,518.335C997.066,518.607 998.653,518.255 999.936,517.357C1001.22,516.459 1002.09,515.087 1002.37,513.545M1132.82,765.019C1132.55,766.562 1132.9,768.149 1133.8,769.432C1134.7,770.715 1136.07,771.589 1137.62,771.86M2630.33,71.159L2630.33,224.702M764.458,243.124L791.121,91.913M2026.66,401.404L2053.32,552.615M1422.36,365.126C1423.9,365.399 1425.49,365.047 1426.78,364.148C1428.06,363.25 1428.93,361.879 1429.2,360.337M1061.11,523.902C1060.83,525.444 1061.18,527.032 1062.08,528.315C1062.98,529.598 1064.35,530.471 1065.89,530.743M2886.53,294.753L2732.98,294.753M550.185,454.202L550.185,300.659M2281.74,518.335L2432.95,491.673M1044.78,292.553C1044.21,295.764 1046.36,298.827 1049.57,299.394M1961.07,406.972L1809.87,433.634M2812.28,685.107C2815.54,685.107 2818.19,682.464 2818.19,679.202M303.529,235.107C306.791,235.107 309.435,232.464 309.435,229.202M2594.19,920.184C2597.4,919.617 2599.55,916.555 2598.98,913.343M2598.97,913.343L2572.32,762.132M1831.74,591.686C1832.3,594.898 1835.37,597.043 1838.58,596.477M3201.81,300.659C3201.81,297.398 3199.17,294.754 3195.91,294.754M144.081,75.659L144.081,229.202M1958.85,340.801C1959.41,344.013 1962.48,346.158 1965.69,345.592M2877.83,525.659L2877.83,679.202M297.06,300.659C297.059,297.398 294.416,294.754 291.154,294.754M1317.54,635.681L1166.33,609.019M3195.9,294.753L3042.36,294.753M827.989,260.323L979.199,286.985M3071.31,525.659C3071.31,522.398 3068.67,519.754 3065.41,519.754M2732.98,460.108L2886.53,460.108M1217.11,557.406C1218.65,557.678 1220.24,557.326 1221.52,556.428C1222.8,555.529 1223.67,554.158 1223.95,552.615M2747.33,750.659L2747.33,904.202M1838.58,596.476L1989.79,569.814M2053.32,552.615C2053.89,555.827 2056.95,557.972 2060.16,557.406M683.078,920.185L861.987,951.731M1166.33,609.019C1164.79,608.746 1163.2,609.098 1161.91,609.996C1160.63,610.894 1159.76,612.266 1159.49,613.808M524.029,910.107C527.291,910.107 529.935,907.464 529.935,904.202M2116.91,318.928C2118.45,318.657 2119.82,317.783 2120.72,316.5C2121.62,315.218 2121.97,313.63 2121.7,312.088M315.06,525.659C315.059,522.398 312.416,519.754 309.154,519.754M1049.57,299.394L1200.78,326.056M1288.83,798.523C1290.37,798.795 1291.96,798.443 1293.24,797.545C1294.52,796.647 1295.4,795.275 1295.67,793.733M617.941,445.76C617.376,448.972 619.52,452.034 622.731,452.602M1887.96,846.42L1886.92,840.529M2911.86,519.753L2883.74,519.753M1002.36,513.544L1029.03,362.334M2812.28,519.753L2658.74,519.753M2187.28,306.521L2338.48,279.858M2144.44,765.019L2117.78,613.808M2652.83,679.202C2652.83,682.464 2655.48,685.108 2658.74,685.108M823.198,253.482C822.632,256.694 824.776,259.756 827.988,260.323M1266.36,331.623C1265.79,334.835 1267.93,337.898 1271.15,338.465M2088.01,799.075C2084.8,799.642 2082.65,802.705 2083.22,805.917M2088.2,156.087L1936.98,182.749M2554.11,530.877L2402.89,557.539M916.033,732.79L1067.24,759.452M879.166,564.38C879.438,562.838 879.086,561.25 878.188,559.967C877.289,558.684 875.918,557.811 874.375,557.539M1229.49,163.214L1078.28,136.552M1390.34,840.529L1389.32,846.346M624.435,525.659C624.435,524.093 623.813,522.591 622.705,521.483C621.598,520.376 620.096,519.754 618.529,519.754M2747.33,904.202C2747.33,907.464 2749.98,910.108 2753.24,910.108M2083.22,805.916L2084.25,811.732M2165.66,797.376L2164.65,791.56M1271.16,338.465L1422.36,365.127M137.611,460.108L291.154,460.108M2727.08,300.659L2727.08,454.202M1733.36,681.593L1760.01,832.803M3037.28,685.108L3065.4,685.108M2095.03,160.877C2094.75,159.335 2093.88,157.964 2092.6,157.065C2091.32,156.167 2089.73,155.815 2088.18,156.087M2084.25,811.732L1910.5,842.37L1887.96,846.42M2316.61,121.806C2316.34,120.264 2315.47,118.893 2314.18,117.994C2312.9,117.096 2311.31,116.744 2309.77,117.016M2795.69,71.159C2795.69,69.593 2795.07,68.091 2793.96,66.983C2792.85,65.876 2791.35,65.254 2789.78,65.254M1932.19,189.59L1958.85,340.801M1287.48,569.814L1438.68,596.476M2906.78,744.753L2753.24,744.753M694.451,693.719L845.661,720.381M1119.46,786.769C1117.92,786.497 1116.33,786.849 1115.05,787.747C1113.77,788.646 1112.89,790.017 1112.62,791.56M1965.69,345.591L2116.91,318.929M2210.03,759.452L2361.23,732.79M369.081,75.659L369.081,229.202M3245.69,249.202L3245.69,219.989L3245.69,75.658M1737.27,379.872C1737.84,383.084 1740.9,385.229 1744.12,384.663M2060.16,557.406L2211.37,530.743M2203.18,754.662C2203.75,757.873 2206.81,760.018 2210.02,759.452M3042.36,294.754C3039.1,294.754 3036.45,297.398 3036.45,300.659M711.791,757.343C710.249,757.07 708.661,757.422 707.378,758.32C706.095,759.218 705.222,760.59 704.95,762.132M802.655,316.422L651.445,289.76M1193.02,811.732L1194.04,805.916M2538.2,82.736C2537.93,81.193 2537.05,79.822 2535.77,78.923C2534.49,78.025 2532.9,77.673 2531.36,77.945M2855.33,75.658L2855.33,97.14L2855.33,231.678L2855.33,249.202M2818.19,525.659C2818.19,524.093 2817.57,522.591 2816.46,521.483C2815.35,520.376 2813.85,519.754 2812.28,519.754M651.445,289.759C648.233,289.193 645.17,291.338 644.603,294.55M1223.95,552.615L1250.61,401.404M1918.07,810.931C1921.28,810.364 1923.42,807.302 1922.86,804.09M131.706,300.659L131.706,454.202M3037.28,519.753L2911.86,519.753M839.523,484.831C838.957,488.043 841.102,491.105 844.313,491.672M2182.66,367.901L2031.44,394.563M3324.43,525.659C3324.43,524.093 3323.81,522.591 3322.7,521.483C3321.59,520.376 3320.09,519.754 3318.53,519.754M2431.6,720.381L2582.82,693.719M137.611,294.754C136.045,294.754 134.543,295.376 133.435,296.483C132.328,297.591 131.706,299.093 131.706,300.659M2630.33,224.702C2630.33,227.964 2632.98,230.608 2636.24,230.608M716.324,535.666L689.66,686.877M1029.03,362.334C1029.3,360.791 1028.95,359.204 1028.05,357.921C1027.15,356.638 1025.78,355.765 1024.24,355.493M315.06,679.202L315.06,525.659M370.486,744.753C368.92,744.753 367.418,745.375 366.31,746.483C365.203,747.591 364.581,749.093 364.581,750.659M2658.74,519.753C2657.17,519.753 2655.67,520.375 2654.56,521.483C2653.45,522.591 2652.83,524.093 2652.83,525.659M2415.28,951.731L2594.19,920.185M2216.16,523.902L2189.5,372.692M3065.4,685.108C3068.67,685.108 3071.31,682.464 3071.31,679.202M2753.24,744.753C2751.67,744.753 2750.17,745.375 2749.06,746.483C2747.95,747.591 2747.33,749.093 2747.33,750.659M364.581,750.659L364.581,904.202M2339.36,574.738C2338.8,571.526 2335.73,569.382 2332.52,569.947M1471.76,854.885C1472.33,851.674 1470.18,848.611 1466.97,848.044M2381.77,795.73L2408.44,946.94M2404.24,328.83L2253.03,355.493M2176.52,603.451L2203.18,754.661M1810.3,848.045C1807.08,848.611 1804.94,851.674 1805.5,854.885M1309.35,411.763L1282.68,562.973M1959.73,635.68C1956.52,636.247 1954.37,639.31 1954.94,642.522M2153.77,150.519L2180.44,301.73M786.331,85.072L635.121,58.41M2411.08,333.621C2410.81,332.078 2409.93,330.707 2408.65,329.809C2407.37,328.91 2405.78,328.558 2404.24,328.83M972.083,778.772L966.873,808.317L938.16,971.159L929.904,1017.97M149.706,679.202C149.706,682.464 152.35,685.107 155.611,685.108M291.155,460.108C294.416,460.108 297.06,457.464 297.06,454.202M1543.91,681.593C1544.48,678.381 1542.34,675.318 1539.12,674.751M2164.64,791.56C2164.37,790.017 2163.49,788.646 2162.21,787.748C2160.93,786.849 2159.34,786.497 2157.8,786.77M369.08,229.202C369.081,232.464 371.725,235.108 374.986,235.108M1429.2,360.336L1455.87,209.126M644.604,294.55L617.941,445.761M1467.4,433.634L1316.19,406.972M529.935,750.659C529.935,749.093 529.313,747.591 528.205,746.483C527.098,745.376 525.596,744.754 524.029,744.754M1895.32,357.999C1896.86,357.728 1898.23,356.854 1899.13,355.571C1900.03,354.288 1900.38,352.701 1900.11,351.159M2189.5,372.691C2188.94,369.479 2185.87,367.335 2182.66,367.901M550.185,300.659C550.185,299.093 549.563,297.591 548.455,296.483C547.348,295.376 545.846,294.754 544.279,294.754M1299.87,175.623C1296.65,175.057 1293.59,177.201 1293.03,180.413M3239.78,255.107C3243.04,255.107 3245.69,252.464 3245.69,249.202M3156.08,255.108L3226.94,255.108M459.081,525.659L459.081,679.202M3127.28,255.108L3156.08,255.108M856.702,97.481C853.49,96.915 850.427,99.059 849.86,102.271M2361.23,732.79C2364.44,732.224 2366.59,729.16 2366.02,725.948M1472.2,440.476C1472.47,438.933 1472.12,437.346 1471.22,436.063C1470.32,434.78 1468.95,433.906 1467.4,433.634M3136.86,519.754C3133.6,519.754 3130.95,522.398 3130.95,525.659M2253.03,355.492C2249.82,356.059 2247.67,359.122 2248.24,362.334M1524.43,1115.96L1533.57,1064.15L1560.23,912.942L1565.44,883.398M3136.86,685.108L3164.98,685.108M2753.24,910.108L2906.78,910.108M2343.28,273.017L2316.61,121.807M2632.66,294.55C2632.1,291.338 2629.03,289.193 2625.82,289.759M2402.02,262.66C2402.59,265.872 2405.65,268.016 2408.86,267.45M1087.77,372.692L1061.1,523.902M1805.51,854.885L1806.54,860.701M3164.98,685.108L3290.4,685.108M2180.43,301.731C2181,304.942 2184.06,307.087 2187.28,306.521M1007.91,124.143L856.701,97.481M309.154,685.108C312.416,685.108 315.06,682.464 315.06,679.202M3036.45,454.202C3036.45,457.464 3039.1,460.107 3042.36,460.108M1638.63,1021.22C1652.32,1021.22 1663.44,1010.11 1663.44,996.42C1663.44,982.731 1652.32,971.617 1638.63,971.617C1624.94,971.617 1613.83,982.731 1613.83,996.42C1613.83,1010.11 1624.94,1021.22 1638.63,1021.22ZM2623.18,741.687C2636.87,741.687 2647.98,730.573 2647.98,716.884C2647.98,703.195 2636.87,692.081 2623.18,692.081C2609.49,692.081 2598.37,703.195 2598.37,716.884C2598.37,730.573 2609.49,741.687 2623.18,741.687ZM654.087,741.687C667.776,741.687 678.89,730.573 678.89,716.884C678.89,703.195 667.776,692.081 654.087,692.081C640.397,692.081 629.284,703.195 629.284,716.884C629.284,730.573 640.397,741.687 654.087,741.687ZM1232.23,378.29C1245.92,378.29 1257.03,367.176 1257.03,353.487C1257.03,339.798 1245.92,328.684 1232.23,328.684C1218.54,328.684 1207.42,339.798 1207.42,353.487C1207.42,367.176 1218.54,378.29 1232.23,378.29ZM2155.84,358.755C2169.53,358.755 2180.64,347.641 2180.64,333.952C2180.64,320.262 2169.53,309.148 2155.84,309.148C2142.15,309.148 2131.03,320.262 2131.03,333.952C2131.03,347.641 2142.15,358.755 2155.84,358.755ZM339.257,289.734C352.946,289.734 364.06,278.62 364.06,264.93C364.06,251.241 352.946,240.127 339.257,240.127C325.568,240.127 314.454,251.241 314.454,264.93C314.454,278.62 325.568,289.734 339.257,289.734ZM3046,738.552C3039.74,738.551 3033.73,741.04 3029.3,745.47C3024.87,749.901 3022.38,755.909 3022.38,762.175M2092.8,101.004C2099.34,105.95 2107.64,107.953 2115.71,106.534C2123.78,105.115 2130.9,100.402 2135.36,93.523M361.23,11.511L645.727,11.474M231.263,738.552L65.034,738.552M2889.1,963.563L2686.98,963.563M2969.23,963.562C2998.58,963.562 3022.38,939.767 3022.38,910.414M11.885,685.403L11.885,64.624M1752.83,1115.96L1524.43,1115.96M3377.88,64.624L3377.88,685.403M65.034,11.474C35.681,11.475 11.885,35.27 11.884,64.624M388,963.555C382.409,957.547 374.565,954.142 366.358,954.16C358.15,954.178 350.322,957.618 344.758,963.651M651.811,968.941C631.497,965.36 610.91,963.558 590.282,963.558M590.282,963.556L388,963.556M2625.44,968.947L2347.36,1017.98M254.885,910.406L254.885,762.174M2932.57,963.563C2926.97,957.499 2919.09,954.05 2910.83,954.05C2902.58,954.05 2894.7,957.499 2889.1,963.563M2631.55,11.474L2855.33,11.474L3027.89,11.73M707.258,16.858C686.943,13.275 666.355,11.474 645.727,11.474M65.034,11.474L317.252,11.474M1700.16,170.239L2092.8,101.003M3071.9,11.796L3254.37,11.495L3324.73,11.474M3324.73,738.552L3046,738.552M3377.88,64.623C3377.88,35.27 3354.08,11.475 3324.73,11.474M929.904,1017.97L651.812,968.938M707.258,16.858L1252.68,113.034M1577.09,170.239C1617.8,177.416 1659.44,177.416 1700.15,170.239M317.252,11.474C322.854,17.718 330.845,21.288 339.233,21.295C347.621,21.302 355.618,17.745 361.23,11.511M2969.23,963.563L2932.57,963.563M3022.38,762.174L3022.38,910.413M344.757,963.652L308.034,963.556M254.885,910.406C254.885,924.503 260.484,938.021 270.452,947.989C280.419,957.956 293.938,963.556 308.035,963.556M1252.68,113.034C1257.13,119.911 1264.24,124.628 1272.31,126.053C1280.37,127.479 1288.67,125.486 1295.21,120.552M1295.21,120.552L1577.1,170.239M2631.55,11.474C2610.92,11.474 2590.34,13.275 2570.02,16.857M2686.98,963.56C2666.35,963.56 2645.76,965.361 2625.45,968.943M11.884,685.403C11.885,714.756 35.681,738.552 65.034,738.552M254.885,762.174C254.884,749.129 244.309,738.553 231.263,738.552M2135.37,93.524L2570.03,16.858M3324.72,738.552C3338.82,738.552 3352.34,732.953 3362.31,722.985C3372.28,713.018 3377.88,699.499 3377.88,685.403M2952.5,255.108C2944.94,259.359 2939.83,267.458 2939.83,276.741C2939.83,290.431 2950.94,301.545 2964.63,301.545C2978.32,301.545 2989.44,290.431 2989.44,276.741C2989.44,267.458 2984.32,259.359 2976.76,255.108M2867.58,69.753L2867.58,33.914C2867.58,30.655 2870.22,28.009 2873.48,28.009L2945.53,28.009C2948.79,28.009 2951.43,30.655 2951.43,33.914L2951.43,69.753M3149.58,69.753L3127.28,69.753M3127.28,69.753L3086.24,69.753M3014.78,69.753L2973.74,69.753M2861.24,69.753C2859.67,69.753 2858.17,70.375 2857.06,71.482C2855.96,72.59 2855.33,74.092 2855.33,75.658M3245.69,75.658C3245.69,72.397 3243.04,69.753 3239.78,69.753M2973.74,69.753L2951.43,69.753M3086.24,69.753L3014.78,69.753M3239.78,69.753L3233.44,69.753M2867.58,69.753L2861.24,69.753M3027.89,11.73C3033.49,17.981 3041.48,21.558 3049.88,21.571C3058.27,21.584 3066.28,18.03 3071.9,11.796M3149.58,69.753L3149.58,33.914C3149.58,30.655 3152.23,28.009 3155.49,28.009L3227.53,28.009C3230.79,28.009 3233.44,30.655 3233.44,33.914L3233.44,69.753" style="fill:none;stroke:rgb(255,0,0);stroke-width:0.42px;"/>
        </g>
    </g>
</svg>
