  0
SECTION
  2
HEADER
  9
$ANGBASE
  50
0.0
  9
$ANGDIR
  70
1
  9
$MEASUREMENT
  70
1
  0
ENDSEC
  0
SECTION
  2
TABLES
  0
TABLE
  2
LTYPE
  70
4
  0
LTYPE
  5
40F
  2
CONTINUOUS
  70
0
  3
Solid line
  72
65
  73
0
  40
0.0
  0
LTYPE
  5
410
  2
DASHDOT
 70
0
  3
Dash Dot ____ _ ____ _
 72
65
 73
4
 40
2.0
 49
1.25
 49
-0.25
 49
0.25
 49
-0.25
  0
LTYPE
  5
411
  2
DASHED
 70
0
  3
Dashed __ __ __ __ __
 72
65
 73
2
 40
0.75
 49
0.5
 49
-0.25
  0
LTYPE
  5
43B
  2
DOTTED
 70
0
  3
Dotted .  .  .  .
 72
65
 73
2
 40
0.2
 49
0.0
 49
-0.2
  0
ENDTAB
  0
TABLE
  2
STYLE
  70
4
  0
STYLE
  2
KICAD
  70
0
  40
0
  41
1
  42
1
  50
0
  71
0
  3
isocp.shx
  0
STYLE
  2
KICADB
  70
0
  40
0
  41
1
  42
1
  50
0
  71
0
  3
isocp.shx
  0
STYLE
  2
KICADI
  70
0
  40
0
  41
1
  42
1
  50
15
  71
0
  3
isocp.shx
  0
STYLE
  2
KICADBI
  70
0
  40
0
  41
1
  42
1
  50
15
  71
0
  3
isocp.shx
  0
ENDTAB
  0
TABLE
  2
LAYER
  70
1
  0
LAYER
  2
BLACK
  70
0
  62
7
  6
CONTINUOUS
  0
ENDTAB
  0
ENDSEC
  0
SECTION
  2
ENTITIES
0
CIRCLE
8
BLACK
10
180.083
20
-37.9366
40
1.1
0
CIRCLE
8
BLACK
10
274.883
20
-32.0928
40
1.1
0
CIRCLE
8
BLACK
10
219.652
20
-70.3582
40
1.1
0
CIRCLE
8
BLACK
10
136.294
20
-94.0256
40
1.1
0
CIRCLE
8
BLACK
10
52.9356
20
-70.3582
40
1.1
0
CIRCLE
8
BLACK
10
101.884
20
-39.5906
40
1.1
0
CIRCLE
8
BLACK
10
7.23008
20
-32.0928
40
1.1
0
LINE
8
BLACK
6
CONTINUOUS
10
255.143
20
-48.6178
11
268.143
21
-48.6178
0
ARC
8
BLACK
10
184.699
20
-54.1058
40
0.500124
50
-79.9857
51
9.9927
0
LINE
8
BLACK
6
CONTINUOUS
10
187.117
20
-92.3672
11
184.86
21
-79.5647
0
ARC
8
BLACK
10
201.088
20
-57.3594
40
0.500104
50
-259.988
51
-170.007
0
ARC
8
BLACK
10
157.265
20
-83.415
40
0.500016
50
10.0017
51
100.002
0
LINE
8
BLACK
6
CONTINUOUS
10
150.386
20
-46.9556
11
152.643
21
-59.7581
0
LINE
8
BLACK
6
CONTINUOUS
10
16.6366
20
-73.1927
11
2.56258
21
-73.1927
0
ARC
8
BLACK
10
157.609
20
-65.0258
40
0.499887
50
9.98724
51
100.011
0
LINE
8
BLACK
6
CONTINUOUS
10
198.67
20
-19.098
11
200.927
21
-31.9005
0
ARC
8
BLACK
10
88.0031
20
-73.47
40
0.499897
50
-100.012
51
-9.98542
0
LINE
8
BLACK
6
CONTINUOUS
10
247.395
20
-15.5678
11
247.395
21
-15.0678
0
ARC
8
BLACK
10
28.9241
20
-86.2178
40
0.499992
50
-180.001
51
-90.0031
0
ARC
8
BLACK
10
189.199
20
-93.0155
40
0.49997
50
-170.003
51
-79.9999
0
LINE
8
BLACK
6
CONTINUOUS
10
214.714
20
-29.4694
11
212.457
21
-16.6669
0
ARC
8
BLACK
10
180.843
20
-14.6003
40
1.49995
50
-170.002
51
-79.9968
0
LINE
8
BLACK
6
CONTINUOUS
10
175.647
20
-102.539
11
174.169
21
-102.799
0
LINE
8
BLACK
6
CONTINUOUS
10
264.271
20
-15.5678
11
262.333
21
-15.5678
0
LINE
8
BLACK
6
CONTINUOUS
10
246.895
20
-29.5678
11
249.333
21
-29.5678
0
LINE
8
BLACK
6
CONTINUOUS
10
22.7073
20
-48.1178
11
22.7073
21
-35.1178
0
LINE
8
BLACK
6
CONTINUOUS
10
90.3473
20
-60.175
11
77.5448
21
-57.9175
0
LINE
8
BLACK
6
CONTINUOUS
10
126.017
20
-80.1727
11
128.274
21
-67.3702
0
LINE
8
BLACK
6
CONTINUOUS
10
103.036
20
-43.0684
11
90.2331
21
-40.8109
0
ARC
8
BLACK
10
150.878
20
-46.8688
40
0.50007
50
-259.992
51
-170.006
0
ARC
8
BLACK
10
58.6973
20
-55.1018
40
0.499919
50
79.9906
51
170.014
0
ARC
8
BLACK
10
222.22
20
-47.4899
40
0.499921
50
-80.0091
51
10.0075
0
LINE
8
BLACK
6
CONTINUOUS
10
29.3051
20
-29.5678
11
42.3051
21
-29.5678
0
LINE
8
BLACK
6
CONTINUOUS
10
201.506
20
-32.3061
11
214.309
21
-30.0487
0
LINE
8
BLACK
6
CONTINUOUS
10
172
20
-95.5404
11
186.712
21
-92.9464
0
ARC
8
BLACK
10
100.993
20
-96.1196
40
0.500009
50
-189.999
51
-100.003
0
LINE
8
BLACK
6
CONTINUOUS
10
29.8801
20
-94.243
11
29.8801
21
-92.943
0
LINE
8
BLACK
6
CONTINUOUS
10
147.15
20
-80.5783
11
159.953
21
-78.3208
0
ARC
8
BLACK
10
129.164
20
-86.871
40
0.500071
50
-9.9919
51
79.9931
0
ARC
8
BLACK
10
2.56258
20
-14.6614
40
5
50
-270
51
-180
0
ARC
8
BLACK
10
80.5486
20
-33.4677
40
0.499973
50
-100.003
51
-9.99866
0
LINE
8
BLACK
6
CONTINUOUS
10
142.931
20
-86.9578
11
145.189
21
-99.7603
0
LINE
8
BLACK
6
CONTINUOUS
10
171.853
20
-101.177
11
147.359
21
-105.495
0
LINE
8
BLACK
6
CONTINUOUS
10
165.773
20
-97.6539
11
171.682
21
-96.612
0
LINE
8
BLACK
6
CONTINUOUS
10
245.307
20
-94.2427
11
245.307
21
-92.9427
0
LINE
8
BLACK
6
CONTINUOUS
10
84.275
20
-39.7604
11
71.4725
21
-37.5029
0
LINE
8
BLACK
6
CONTINUOUS
10
257.094
20
-53.6678
11
254.713
21
-53.6678
0
ARC
8
BLACK
10
178.626
20
-74.5204
40
0.500131
50
-79.985
51
9.99395
0
LINE
8
BLACK
6
CONTINUOUS
10
249.333
20
-29.5678
11
252.808
21
-29.5678
0
ARC
8
BLACK
10
79.9106
20
-78.1863
40
0.500024
50
80.0027
51
169.997
0
ARC
8
BLACK
10
102.949
20
-43.5607
40
0.499921
50
-10.0087
51
80.0054
0
ARC
8
BLACK
10
155.683
20
-26.6777
40
0.499952
50
9.99456
51
100.003
0
ARC
8
BLACK
10
241.949
20
-35.1178
40
0.500009
50
0.00091678
51
90.003
0
ARC
8
BLACK
10
120.327
20
-27.2812
40
0.500017
50
-9.99806
51
80.003
0
ARC
8
BLACK
10
179.597
20
-101.334
40
0.500104
50
-79.9884
51
9.98905
0
LINE
8
BLACK
6
CONTINUOUS
10
222.663
20
-67.6678
11
235.663
21
-67.6678
0
LINE
8
BLACK
6
CONTINUOUS
10
23.7801
20
-92.243
11
23.1366
21
-92.243
0
ARC
8
BLACK
10
112.892
20
-97.2023
40
0.499997
50
-190
51
-100.001
0
LINE
8
BLACK
6
CONTINUOUS
10
69.0414
20
-51.2902
11
81.8439
21
-53.5477
0
LINE
8
BLACK
6
CONTINUOUS
10
262.333
20
-15.5678
11
258.858
21
-15.5678
0
LINE
8
BLACK
6
CONTINUOUS
10
121.637
20
-85.0361
11
121.724
21
-84.5437
0
LINE
8
BLACK
6
CONTINUOUS
10
160.358
20
-77.7416
11
158.101
21
-64.9391
0
LINE
8
BLACK
6
CONTINUOUS
10
187.907
20
-40.3396
11
190.165
21
-53.1421
0
ARC
8
BLACK
10
182.327
20
-60.6674
40
0.500089
50
-259.99
51
-170.007
0
LINE
8
BLACK
6
CONTINUOUS
10
70.8932
20
-37.9085
11
68.6358
21
-50.711
0
ARC
8
BLACK
10
233.758
20
-28.6868
40
0.499974
50
-90.0031
51
0.00103138
0
ARC
8
BLACK
10
268.143
20
-48.1178
40
0.499925
50
-90.0087
51
0.00103148
0
LINE
8
BLACK
6
CONTINUOUS
10
112.635
20
-78.3208
11
125.437
21
-80.5783
0
ARC
8
BLACK
10
65.4276
20
-36.9447
40
0.499921
50
-10.0089
51
80.0026
0
LINE
8
BLACK
6
CONTINUOUS
10
24.9801
20
-7.66181
11
23.4801
21
-7.66181
0
ARC
8
BLACK
10
126.972
20
-95.6472
40
9.99998
50
-99.9969
51
-89.9985
0
LINE
8
BLACK
6
CONTINUOUS
10
222.163
20
-54.1678
11
222.163
21
-67.1678
0
LINE
8
BLACK
6
CONTINUOUS
10
244.164
20
-86.2178
11
244.164
21
-73.2178
0
ARC
8
BLACK
10
88.2204
20
-79.6515
40
0.500007
50
80.001
51
170.002
0
ARC
8
BLACK
10
36.9251
20
-54.1678
40
0.500027
50
90.003
51
179.999
0
ARC
8
BLACK
10
77.4579
20
-58.4098
40
0.499932
50
79.9922
51
170.014
0
LINE
8
BLACK
6
CONTINUOUS
10
110.319
20
-19.3985
11
134.557
21
-23.6734
0
ARC
8
BLACK
10
29.3051
20
-16.0678
40
0.500026
50
90.0029
51
179.999
0
ARC
8
BLACK
10
264.771
20
-15.0678
40
0.500025
50
90.003
51
179.999
0
LINE
8
BLACK
6
CONTINUOUS
10
87.728
20
-79.5647
11
85.4706
21
-92.3672
0
LINE
8
BLACK
6
CONTINUOUS
10
258.858
20
-29.5678
11
262.333
21
-29.5678
0
LINE
8
BLACK
6
CONTINUOUS
10
219.876
20
-34.1949
11
207.073
21
-36.4524
0
ARC
8
BLACK
10
48.9855
20
-27.9023
40
0.499962
50
-190.004
51
-100.002
0
LINE
8
BLACK
6
CONTINUOUS
10
145.224
20
-42.2301
11
158.027
21
-39.9727
0
ARC
8
BLACK
10
145.623
20
-95.647
40
9.99972
50
-89.999
51
-80.0027
0
LINE
8
BLACK
6
CONTINUOUS
10
166.431
20
-57.327
11
164.173
21
-44.5245
0
LINE
8
BLACK
6
CONTINUOUS
10
121.319
20
-83.9645
11
115.41
21
-82.9226
0
ARC
8
BLACK
10
82.806
20
-20.6652
40
0.500015
50
-9.99816
51
80.0003
0
ARC
8
BLACK
10
220.758
20
-15.6868
40
0.500026
50
90.003
51
179.999
0
LINE
8
BLACK
6
CONTINUOUS
10
30.1386
20
-35.1178
11
30.1386
21
-48.1178
0
ARC
8
BLACK
10
30.6386
20
-35.1178
40
0.500027
50
90.0029
51
179.999
0
LINE
8
BLACK
6
CONTINUOUS
10
10.2551
20
-29.5678
11
23.2551
21
-29.5678
0
ARC
8
BLACK
10
216.148
20
-67.9044
40
0.500106
50
-79.9878
51
9.994
0
LINE
8
BLACK
6
CONTINUOUS
10
50.4251
20
-67.1678
11
50.4251
21
-54.1678
0
ARC
8
BLACK
10
263.144
20
-67.1677
40
0.500092
50
-179.99
51
-90.0086
0
ARC
8
BLACK
10
180.401
20
-22.3192
40
0.500044
50
-259.995
51
-170.003
0
LINE
8
BLACK
6
CONTINUOUS
10
50.7505
20
-15.0129
11
48.4931
21
-27.8154
0
ARC
8
BLACK
10
142.88
20
-28.9352
40
0.500018
50
-259.998
51
-170.003
0
LINE
8
BLACK
6
CONTINUOUS
10
184.28
20
-79.1591
11
181.357
21
-79.6745
0
LINE
8
BLACK
6
CONTINUOUS
10
197.88
20
-71.1256
11
195.622
21
-58.3231
0
LINE
8
BLACK
6
CONTINUOUS
10
120.414
20
-26.7888
11
107.612
21
-24.5313
0
LINE
8
BLACK
6
CONTINUOUS
10
107.481
20
-96.7559
11
110.404
21
-97.2713
0
ARC
8
BLACK
10
54.2226
20
-19.6606
40
9.99878
50
80.0001
51
90.0007
0
ARC
8
BLACK
10
241.949
20
-48.1178
40
0.499974
50
-90.003
51
0.00114598
0
ARC
8
BLACK
10
101.567
20
-23.9732
40
0.500018
50
-9.99806
51
80.0015
0
LINE
8
BLACK
6
CONTINUOUS
10
24.9801
20
-8.96181
11
24.9801
21
-7.66181
0
LINE
8
BLACK
6
CONTINUOUS
10
278.525
20
-53.6678
11
276.144
21
-53.6678
0
LINE
8
BLACK
6
CONTINUOUS
10
22.2073
20
-34.6178
11
9.20732
21
-34.6178
0
ARC
8
BLACK
10
106.902
20
-97.1615
40
0.499922
50
-100.009
51
-10.0011
0
LINE
8
BLACK
6
CONTINUOUS
10
69.5111
20
-18.3209
11
67.2537
21
-31.1234
0
ARC
8
BLACK
10
26.2801
20
-8.9618
40
1.29999
50
-179.999
51
-90.0011
0
ARC
8
BLACK
10
90.1463
20
-41.3034
40
0.50007
50
80.0082
51
169.995
0
LINE
8
BLACK
6
CONTINUOUS
10
41.9241
20
-72.7178
11
28.9241
21
-72.7178
0
ARC
8
BLACK
10
171.388
20
-16.2672
40
1.50011
50
-79.9958
51
9.9973
0
LINE
8
BLACK
6
CONTINUOUS
10
150.95
20
-85.0361
11
143.337
21
-86.3785
0
LINE
8
BLACK
6
CONTINUOUS
10
242.449
20
-48.1178
11
242.449
21
-35.1178
0
LINE
8
BLACK
6
CONTINUOUS
10
203.952
20
-50.711
11
201.694
21
-37.9085
0
ARC
8
BLACK
10
49.1819
20
-102.241
40
9.99946
50
80.0013
51
89.9921
0
LINE
8
BLACK
6
CONTINUOUS
10
91.3172
20
-79.1821
11
91.2304
21
-79.6745
0
ARC
8
BLACK
10
143.424
20
-86.8709
40
0.499932
50
-260.008
51
-169.994
0
LINE
8
BLACK
6
CONTINUOUS
10
195.601
20
-91.8868
11
193.169
21
-78.0994
0
ARC
8
BLACK
10
190.657
20
-53.0554
40
0.499877
50
-170.014
51
-79.9948
0
LINE
8
BLACK
6
CONTINUOUS
10
193.117
20
-19.5694
11
180.315
21
-21.8268
0
LINE
8
BLACK
6
CONTINUOUS
10
112.835
20
-83.484
11
98.124
21
-80.8901
0
ARC
8
BLACK
10
144.806
20
-67.2834
40
0.500065
50
-259.993
51
-170.007
0
ARC
8
BLACK
10
70.6246
20
-89.7495
40
0.499973
50
-100.003
51
-9.99436
0
LINE
8
BLACK
6
CONTINUOUS
10
181.307
20
-99.5101
11
221.666
21
-92.3946
0
ARC
8
BLACK
10
42.3051
20
-29.0678
40
0.499974
50
-90.003
51
0.00103138
0
LINE
8
BLACK
6
CONTINUOUS
10
264.271
20
-15.0678
11
264.271
21
-15.5678
0
ARC
8
BLACK
10
173.358
20
-15.9198
40
0.49989
50
-260.012
51
-169.98
0
LINE
8
BLACK
6
CONTINUOUS
10
252.808
20
-15.5678
11
249.333
21
-15.5678
0
ARC
8
BLACK
10
36.9251
20
-67.1678
40
0.499991
50
-180.001
51
-90.003
0
LINE
8
BLACK
6
CONTINUOUS
10
129.251
20
-86.3785
11
121.637
21
-85.0361
0
ARC
8
BLACK
10
72.882
20
-76.947
40
0.500055
50
-9.99381
51
80.0001
0
LINE
8
BLACK
6
CONTINUOUS
10
97.8053
20
-79.8184
11
91.8964
21
-78.7766
0
LINE
8
BLACK
6
CONTINUOUS
10
279.025
20
-67.1678
11
279.025
21
-54.1678
0
LINE
8
BLACK
6
CONTINUOUS
10
114.487
20
-64.9391
11
112.229
21
-77.7416
0
ARC
8
BLACK
10
90.2605
20
-60.6673
40
0.499933
50
-10.0076
51
80.005
0
LINE
8
BLACK
6
CONTINUOUS
10
172.087
20
-96.0328
11
172
21
-95.5404
0
LINE
8
BLACK
6
CONTINUOUS
10
36.9251
20
-67.6678
11
49.9251
21
-67.6678
0
LINE
8
BLACK
6
CONTINUOUS
10
48.8987
20
-28.3947
11
61.7012
21
-30.6521
0
LINE
8
BLACK
6
CONTINUOUS
10
236.163
20
-67.1678
11
236.163
21
-54.1678
0
LINE
8
BLACK
6
CONTINUOUS
10
100.735
20
-101.177
11
125.236
21
-105.495
0
LINE
8
BLACK
6
CONTINUOUS
10
119.944
20
-59.7581
11
122.202
21
-46.9556
0
LINE
8
BLACK
6
CONTINUOUS
10
142.388
20
-29.022
11
144.645
21
-41.8245
0
ARC
8
BLACK
10
64.0453
20
-17.3572
40
0.500034
50
-9.99614
51
79.9872
0
LINE
8
BLACK
6
CONTINUOUS
10
85.9062
20
-78.7358
11
79.9974
21
-77.6939
0
LINE
8
BLACK
6
CONTINUOUS
10
270.771
20
-14.5678
11
264.771
21
-14.5678
0
LINE
8
BLACK
6
CONTINUOUS
10
10.2313
20
-54.1678
11
10.2313
21
-67.1678
0
ARC
8
BLACK
10
162.097
20
-96.779
40
0.499945
50
-170.006
51
-79.9971
0
LINE
8
BLACK
6
CONTINUOUS
10
211.878
20
-16.2614
11
199.075
21
-18.5188
0
LINE
8
BLACK
6
CONTINUOUS
10
279.55
20
-73.1927
11
255.951
21
-73.1927
0
ARC
8
BLACK
10
30.6386
20
-48.1178
40
0.499991
50
-180.001
51
-90.0031
0
ARC
8
BLACK
10
241.713
20
-67.1678
40
0.499991
50
-180.001
51
-90.003
0
LINE
8
BLACK
6
CONTINUOUS
10
63.6625
20
-49.8341
11
65.92
21
-37.0316
0
LINE
8
BLACK
6
CONTINUOUS
10
220.758
20
-29.1868
11
233.758
21
-29.1868
0
ARC
8
BLACK
10
169.639
20
-43.5608
40
0.500084
50
-259.99
51
-170.006
0
ARC
8
BLACK
10
213.89
20
-55.102
40
0.500068
50
10.0078
51
100
0
ARC
8
BLACK
10
119.452
20
-59.6713
40
0.499993
50
-100.001
51
-9.99617
0
ARC
8
BLACK
10
115.323
20
-83.415
40
0.500035
50
80.004
51
169.999
0
ARC
8
BLACK
10
99.3092
20
-36.7757
40
0.499961
50
-100.004
51
-9.99867
0
ARC
8
BLACK
10
161.641
20
-25.6272
40
0.500032
50
-259.996
51
-170.003
0
LINE
8
BLACK
6
CONTINUOUS
10
43.6386
20
-34.6178
11
30.6386
21
-34.6178
0
LINE
8
BLACK
6
CONTINUOUS
10
87.802
20
-54.5982
11
100.604
21
-56.8557
0
LINE
8
BLACK
6
CONTINUOUS
10
81.041
20
-33.5545
11
83.2984
21
-20.752
0
LINE
8
BLACK
6
CONTINUOUS
10
257.594
20
-67.1678
11
257.594
21
-54.1678
0
ARC
8
BLACK
10
214.222
20
-29.5563
40
0.499972
50
-80.0031
51
10.0052
0
ARC
8
BLACK
10
10.2551
20
-16.0678
40
0.500026
50
90.003
51
179.999
0
ARC
8
BLACK
10
207.16
20
-36.9448
40
0.500012
50
-259.999
51
-170.003
0
ARC
8
BLACK
10
243.664
20
-86.2178
40
0.499974
50
-90.0032
51
0.00091678
0
LINE
8
BLACK
6
CONTINUOUS
10
157.522
20
-64.5335
11
144.719
21
-66.7909
0
LINE
8
BLACK
6
CONTINUOUS
10
239.808
20
-29.5678
11
240.895
21
-29.5678
0
LINE
8
BLACK
6
CONTINUOUS
10
174.749
20
-15.1671
11
173.271
21
-15.4276
0
ARC
8
BLACK
10
214.853
20
-74.2761
40
0.50006
50
10.0067
51
99.9856
0
LINE
8
BLACK
6
CONTINUOUS
10
10.7313
20
-67.6678
11
23.7313
21
-67.6678
0
ARC
8
BLACK
10
16.6366
20
-74.6927
40
1.5
50
-0.000152791
51
90.0008
0
LINE
8
BLACK
6
CONTINUOUS
10
276.144
20
-53.6678
11
265.525
21
-53.6678
0
LINE
8
BLACK
6
CONTINUOUS
10
234.258
20
-28.6868
11
234.258
21
-15.6868
0
ARC
8
BLACK
10
56.44
20
-67.9044
40
0.500044
50
-189.995
51
-100.007
0
ARC
8
BLACK
10
199.162
20
-19.0112
40
0.499957
50
-260.005
51
-170.001
0
ARC
8
BLACK
10
203.459
20
-50.7979
40
0.499934
50
-80.0075
51
10.0077
0
ARC
8
BLACK
10
228.949
20
-48.1178
40
0.499992
50
-180.001
51
-90.003
0
ARC
8
BLACK
10
43.6386
20
-48.1178
40
0.499975
50
-90.003
51
0.00103138
0
LINE
8
BLACK
6
CONTINUOUS
10
55.9589
20
-9.81372
11
100.865
21
-17.7314
0
ARC
8
BLACK
10
178.873
20
-14.9476
40
0.500062
50
10.0077
51
99.992
0
ARC
8
BLACK
10
243.664
20
-73.2178
40
0.500008
50
0.00103138
51
90.0029
0
ARC
8
BLACK
10
199.706
20
-76.947
40
0.50005
50
-259.994
51
-170.007
0
ARC
8
BLACK
10
195.461
20
-32.8643
40
0.499888
50
-80.0128
51
10.0075
0
ARC
8
BLACK
10
239.207
20
-93.7427
40
1.49999
50
-0.000267385
51
90.0011
0
ARC
8
BLACK
10
176.254
20
-16.2217
40
1.29989
50
-170.005
51
-79.9985
0
LINE
8
BLACK
6
CONTINUOUS
10
244.094
20
-67.6678
11
254.713
21
-67.6678
0
ARC
8
BLACK
10
114.979
20
-65.0259
40
0.499973
50
79.9971
51
170.003
0
LINE
8
BLACK
6
CONTINUOUS
10
49.9251
20
-53.6678
11
36.9251
21
-53.6678
0
LINE
8
BLACK
6
CONTINUOUS
10
107.394
20
-97.2483
11
107.481
21
-96.7559
0
ARC
8
BLACK
10
192.677
20
-78.1862
40
0.499934
50
9.99241
51
100.005
0
ARC
8
BLACK
10
108.907
20
-44.6112
40
0.499852
50
79.983
51
170.013
0
ARC
8
BLACK
10
55.4769
20
-87.0786
40
0.499903
50
-190.011
51
-99.9896
0
LINE
8
BLACK
6
CONTINUOUS
10
242.707
20
-94.2427
11
241.207
21
-94.2427
0
ARC
8
BLACK
10
163.681
20
-44.6115
40
0.500136
50
10.0156
51
99.983
0
LINE
8
BLACK
6
CONTINUOUS
10
240.895
20
-29.5678
11
246.895
21
-29.5678
0
ARC
8
BLACK
10
2.56258
20
-68.1927
40
5
50
-180
51
-90
0
LINE
8
BLACK
6
CONTINUOUS
10
233.983
20
-9.66141
11
218.362
21
-9.66141
0
ARC
8
BLACK
10
9.2074
20
-48.1177
40
0.500091
50
-179.99
51
-90.0087
0
LINE
8
BLACK
6
CONTINUOUS
10
95.7261
20
-61.6311
11
93.4687
21
-74.4336
0
ARC
8
BLACK
10
249.451
20
-87.2427
40
5.00008
50
-89.999
51
-6.87538e-05
0
LINE
8
BLACK
6
CONTINUOUS
10
271.271
20
-15.5678
11
271.271
21
-15.0678
0
LINE
8
BLACK
6
CONTINUOUS
10
265.525
20
-53.6678
11
263.144
21
-53.6678
0
LINE
8
BLACK
6
CONTINUOUS
10
42.4241
20
-86.2178
11
42.4241
21
-73.2178
0
ARC
8
BLACK
10
63.1701
20
-49.7473
40
0.500033
50
-99.9963
51
-9.9963
0
LINE
8
BLACK
6
CONTINUOUS
10
200.595
20
-57.4462
11
202.853
21
-70.2487
0
LINE
8
BLACK
6
CONTINUOUS
10
157.178
20
-82.9226
11
151.269
21
-83.9645
0
LINE
8
BLACK
6
CONTINUOUS
10
268.643
20
-48.1178
11
268.643
21
-35.1178
0
ARC
8
BLACK
10
241.583
20
-8.1614
40
0.499986
50
-0.00171897
51
90.0028
0
ARC
8
BLACK
10
23.2551
20
-16.0678
40
0.500008
50
0.00114597
51
90.0031
0
ARC
8
BLACK
10
174.082
20
-102.307
40
0.499921
50
-170.009
51
-79.9872
0
LINE
8
BLACK
6
CONTINUOUS
10
110.983
20
-96.8658
11
113.241
21
-84.0633
0
LINE
8
BLACK
6
CONTINUOUS
10
138.031
20
-23.6734
11
171.649
21
-17.7445
0
LINE
8
BLACK
6
CONTINUOUS
10
27.5801
20
-7.66181
11
27.5801
21
-8.96181
0
LINE
8
BLACK
6
CONTINUOUS
10
216.64
20
-67.8176
11
214.383
21
-55.0151
0
LINE
8
BLACK
6
CONTINUOUS
10
71.117
20
-89.8363
11
73.3744
21
-77.0338
0
LINE
8
BLACK
6
CONTINUOUS
10
29.8801
20
-94.243
11
31.3804
21
-94.243
0
ARC
8
BLACK
10
255.951
20
-74.6927
40
1.49991
50
-270.003
51
-180
0
LINE
8
BLACK
6
CONTINUOUS
10
107.256
20
-76.8647
11
109.513
21
-64.0622
0
LINE
8
BLACK
6
CONTINUOUS
10
88.4954
20
-73.5567
11
90.7529
21
-60.7542
0
ARC
8
BLACK
10
203.345
20
-70.1619
40
0.499964
50
-170.004
51
-79.9977
0
ARC
8
BLACK
10
31.0804
20
-8.1618
40
1.50001
50
-180
51
-90.001
0
LINE
8
BLACK
6
CONTINUOUS
10
99.8016
20
-36.8625
11
102.059
21
-24.06
0
LINE
8
BLACK
6
CONTINUOUS
10
50.2808
20
-47.9823
11
63.0833
21
-50.2397
0
LINE
8
BLACK
6
CONTINUOUS
10
233.758
20
-15.1868
11
220.758
21
-15.1868
0
LINE
8
BLACK
6
CONTINUOUS
10
127.868
20
-66.7909
11
115.066
21
-64.5335
0
LINE
8
BLACK
6
CONTINUOUS
10
155.596
20
-26.1853
11
142.793
21
-28.4428
0
ARC
8
BLACK
10
176.701
20
-101.033
40
1.29997
50
-260.001
51
-169.998
0
LINE
8
BLACK
6
CONTINUOUS
10
239.207
20
-92.2427
11
223.402
21
-92.2427
0
LINE
8
BLACK
6
CONTINUOUS
10
254.451
20
-74.6927
11
254.451
21
-87.2427
0
LINE
8
BLACK
6
CONTINUOUS
10
71.5867
20
-56.867
11
58.7842
21
-54.6095
0
LINE
8
BLACK
6
CONTINUOUS
10
178.207
20
-102.087
11
177.981
21
-100.807
0
LINE
8
BLACK
6
CONTINUOUS
10
145.623
20
-105.647
11
126.972
21
-105.647
0
ARC
8
BLACK
10
51.243
20
-15.0999
40
0.50011
50
80.0125
51
169.986
0
ARC
8
BLACK
10
109.021
20
-63.9753
40
0.499934
50
-10.0076
51
80.0061
0
LINE
8
BLACK
6
CONTINUOUS
10
108.697
20
-17.0815
11
107.219
21
-16.8211
0
ARC
8
BLACK
10
201.963
20
-89.7494
40
0.50004
50
-169.996
51
-80.0049
0
LINE
8
BLACK
6
CONTINUOUS
10
93.8743
20
-75.0128
11
106.677
21
-77.2703
0
ARC
8
BLACK
10
147.064
20
-80.0858
40
0.500045
50
-169.995
51
-80.0065
0
ARC
8
BLACK
10
165.824
20
-76.7778
40
0.500043
50
-169.995
51
-80.008
0
ARC
8
BLACK
10
186.625
20
-92.454
40
0.500081
50
-79.9906
51
9.99636
0
ARC
8
BLACK
10
10.7313
20
-54.1678
40
0.499966
50
-270.004
51
-179.997
0
LINE
8
BLACK
6
CONTINUOUS
10
23.2551
20
-15.5678
11
10.2551
21
-15.5678
0
LINE
8
BLACK
6
CONTINUOUS
10
248.807
20
-92.2427
11
249.451
21
-92.2427
0
LINE
8
BLACK
6
CONTINUOUS
10
189.286
20
-93.5079
11
195.195
21
-92.466
0
LINE
8
BLACK
6
CONTINUOUS
10
83.8808
20
-93.1023
11
86.3118
21
-79.315
0
ARC
8
BLACK
10
172.113
20
-102.654
40
1.50008
50
10.0033
51
99.9963
0
ARC
8
BLACK
10
42.3051
20
-16.0678
40
0.500008
50
0.00103138
51
90.003
0
LINE
8
BLACK
6
CONTINUOUS
10
91.2304
20
-79.6745
11
88.3072
21
-79.1591
0
LINE
8
BLACK
6
CONTINUOUS
10
76.9655
20
-58.3231
11
74.7081
21
-71.1256
0
ARC
8
BLACK
10
23.48
20
-8.1618
40
0.499925
50
-270.008
51
-179.999
0
LINE
8
BLACK
6
CONTINUOUS
10
42.8051
20
-29.0678
11
42.8051
21
-16.0678
0
LINE
8
BLACK
6
CONTINUOUS
10
27.2801
20
-92.943
11
27.2801
21
-94.243
0
ARC
8
BLACK
10
176.369
20
-61.718
40
0.500051
50
10.0059
51
99.9857
0
LINE
8
BLACK
6
CONTINUOUS
10
270.771
20
-29.5678
11
271.858
21
-29.5678
0
ARC
8
BLACK
10
10.2551
20
-29.0678
40
0.499992
50
-180.001
51
-90.0031
0
LINE
8
BLACK
6
CONTINUOUS
10
246.895
20
-14.5678
11
240.895
21
-14.5678
0
LINE
8
BLACK
6
CONTINUOUS
10
214.766
20
-73.7836
11
199.619
21
-76.4545
0
LINE
8
BLACK
6
CONTINUOUS
10
69.7348
20
-70.2487
11
71.9923
21
-57.4462
0
ARC
8
BLACK
10
69.2424
20
-70.1619
40
0.500025
50
-99.9969
51
-9.9947
0
LINE
8
BLACK
6
CONTINUOUS
10
30.6386
20
-48.6178
11
43.6386
21
-48.6178
0
ARC
8
BLACK
10
75.2004
20
-71.2125
40
0.499912
50
-190.01
51
-99.9878
0
ARC
8
BLACK
10
112.722
20
-77.8285
40
0.499911
50
-190.01
51
-99.9907
0
LINE
8
BLACK
6
CONTINUOUS
10
176.282
20
-61.2255
11
163.48
21
-63.483
0
ARC
8
BLACK
10
239.808
20
-29.0678
40
0.499991
50
-180.001
51
-90.003
0
ARC
8
BLACK
10
61.788
20
-30.1597
40
0.499985
50
-100.002
51
-9.99865
0
ARC
8
BLACK
10
165.938
20
-57.4138
40
0.500138
50
-79.9841
51
9.99242
0
ARC
8
BLACK
10
88.7641
20
-21.7158
40
0.500019
50
80.0022
51
169.995
0
LINE
8
BLACK
6
CONTINUOUS
10
240.395
20
-15.0678
11
240.395
21
-15.5678
0
LINE
8
BLACK
6
CONTINUOUS
10
206.668
20
-37.0316
11
208.925
21
-49.8341
0
LINE
8
BLACK
6
CONTINUOUS
10
276.144
20
-67.6678
11
278.525
21
-67.6678
0
LINE
8
BLACK
6
CONTINUOUS
10
88.2717
20
-21.6289
11
86.0143
21
-34.4314
0
LINE
8
BLACK
6
CONTINUOUS
10
92.9034
20
-101.826
11
94.3806
21
-102.087
0
LINE
8
BLACK
6
CONTINUOUS
10
163.074
20
-64.0622
11
165.332
21
-76.8647
0
LINE
8
BLACK
6
CONTINUOUS
10
72.9688
20
-76.4545
11
57.8213
21
-73.7836
0
LINE
8
BLACK
6
CONTINUOUS
10
28.9241
20
-86.7178
11
41.9241
21
-86.7178
0
LINE
8
BLACK
6
CONTINUOUS
10
192.59
20
-77.6939
11
186.681
21
-78.7358
0
ARC
8
BLACK
10
176.254
20
-16.2216
40
1.30002
50
-79.9993
51
10.0005
0
LINE
8
BLACK
6
CONTINUOUS
10
107.032
20
-24.9369
11
104.775
21
-37.7394
0
ARC
8
BLACK
10
278.525
20
-67.1678
40
0.499974
50
-90.003
51
0.00091678
0
ARC
8
BLACK
10
98.5051
20
-102.306
40
0.500076
50
-99.9914
51
-10.0193
0
ARC
8
BLACK
10
223.402
20
-102.242
40
9.9996
50
90.0001
51
99.9992
0
LINE
8
BLACK
6
CONTINUOUS
10
165.911
20
-77.2703
11
178.713
21
-75.0128
0
LINE
8
BLACK
6
CONTINUOUS
10
85.8761
20
-92.9464
11
100.587
21
-95.5404
0
ARC
8
BLACK
10
209.417
20
-49.7473
40
0.499975
50
-170.003
51
-79.9983
0
ARC
8
BLACK
10
238.782
20
-8.9614
40
1.30007
50
-89.9969
51
-0.000705139
0
ARC
8
BLACK
10
71.3857
20
-37.9954
40
0.50006
50
80.0068
51
169.995
0
LINE
8
BLACK
6
CONTINUOUS
10
254.643
20
-35.1178
11
254.643
21
-48.1178
0
ARC
8
BLACK
10
85.963
20
-92.454
40
0.500023
50
-189.997
51
-100.004
0
LINE
8
BLACK
6
CONTINUOUS
10
209.504
20
-50.2397
11
222.307
21
-47.9823
0
ARC
8
BLACK
10
49.9251
20
-67.1678
40
0.499974
50
-90.003
51
0.00103138
0
LINE
8
BLACK
6
CONTINUOUS
10
195.043
20
-57.9175
11
182.24
21
-60.175
0
LINE
8
BLACK
6
CONTINUOUS
10
241.713
20
-67.6678
11
244.094
21
-67.6678
0
LINE
8
BLACK
6
CONTINUOUS
10
42.3051
20
-15.5678
11
29.3051
21
-15.5678
0
LINE
8
BLACK
6
CONTINUOUS
10
262.644
20
-54.1678
11
262.644
21
-67.1678
0
LINE
8
BLACK
6
CONTINUOUS
10
158.433
20
-39.3934
11
156.175
21
-26.5909
0
LINE
8
BLACK
6
CONTINUOUS
10
57.242
20
-74.1892
11
54.9846
21
-86.9917
0
LINE
8
BLACK
6
CONTINUOUS
10
23.7551
20
-29.0678
11
23.7551
21
-16.0678
0
LINE
8
BLACK
6
CONTINUOUS
10
159.347
20
-84.0633
11
161.604
21
-96.8658
0
ARC
8
BLACK
10
97.7185
20
-80.3108
40
0.499937
50
-10.0072
51
80.0053
0
LINE
8
BLACK
6
CONTINUOUS
10
186.276
20
-79.315
11
188.707
21
-93.1023
0
LINE
8
BLACK
6
CONTINUOUS
10
23.7313
20
-53.6678
11
10.7313
21
-53.6678
0
ARC
8
BLACK
10
228.949
20
-35.1178
40
0.500025
50
90.0031
51
179.999
0
ARC
8
BLACK
10
103.095
20
-16.6014
40
0.499893
50
79.988
51
170.01
0
LINE
8
BLACK
6
CONTINUOUS
10
177.193
20
-36.0854
11
174.936
21
-23.2829
0
LINE
8
BLACK
6
CONTINUOUS
10
181.103
20
-16.0774
11
216.626
21
-9.81336
0
LINE
8
BLACK
6
CONTINUOUS
10
222.712
20
-47.403
11
220.455
21
-34.6005
0
ARC
8
BLACK
10
184.367
20
-79.6515
40
0.49999
50
9.99888
51
100.005
0
ARC
8
BLACK
10
241.713
20
-54.1678
40
0.500026
50
90.0031
51
179.999
0
ARC
8
BLACK
10
239.808
20
-16.0678
40
0.500027
50
90.003
51
179.999
0
ARC
8
BLACK
10
125.524
20
-80.0859
40
0.499889
50
-100.013
51
-9.99687
0
LINE
8
BLACK
6
CONTINUOUS
10
180.691
20
-78.7766
11
174.782
21
-79.8184
0
LINE
8
BLACK
6
CONTINUOUS
10
100.906
20
-96.612
11
106.815
21
-97.6539
0
ARC
8
BLACK
10
106.649
20
-57.4139
40
0.499923
50
-190.009
51
-99.99
0
LINE
8
BLACK
6
CONTINUOUS
10
100.587
20
-95.5404
11
100.5
21
-96.0328
0
LINE
8
BLACK
6
CONTINUOUS
10
252.808
20
-29.5678
11
258.858
21
-29.5678
0
ARC
8
BLACK
10
81.9307
20
-53.0553
40
0.500019
50
-99.9977
51
-9.99633
0
ARC
8
BLACK
10
93.961
20
-74.5205
40
0.499911
50
-190.01
51
-99.9891
0
LINE
8
BLACK
6
CONTINUOUS
10
220.258
20
-15.6868
11
220.258
21
-28.6868
0
ARC
8
BLACK
10
271.858
20
-16.0678
40
0.500009
50
0.00103138
51
90.003
0
ARC
8
BLACK
10
218.362
20
-19.6604
40
9.99899
50
89.9996
51
100.001
0
LINE
8
BLACK
6
CONTINUOUS
10
62.2804
20
-30.2465
11
64.5378
21
-17.444
0
LINE
8
BLACK
6
CONTINUOUS
10
94.3806
20
-102.087
11
94.6064
21
-100.807
0
LINE
8
BLACK
6
CONTINUOUS
10
169.147
20
-43.6476
11
171.404
21
-56.4501
0
ARC
8
BLACK
10
118.07
20
-40.0837
40
0.499949
50
-100.006
51
-9.99857
0
ARC
8
BLACK
10
87.8887
20
-54.1059
40
0.499923
50
-190.009
51
-99.9885
0
LINE
8
BLACK
6
CONTINUOUS
10
241.949
20
-34.6178
11
228.949
21
-34.6178
0
LINE
8
BLACK
6
CONTINUOUS
10
44.1386
20
-48.1178
11
44.1386
21
-35.1178
0
ARC
8
BLACK
10
26.2801
20
-8.96183
40
1.29997
50
-90.0017
51
0.000793346
0
LINE
8
BLACK
6
CONTINUOUS
10
190.744
20
-53.5477
11
203.546
21
-51.2902
0
ARC
8
BLACK
10
86.5067
20
-34.5182
40
0.500059
50
-189.993
51
-100.003
0
LINE
8
BLACK
6
CONTINUOUS
10
162.184
20
-97.2713
11
165.107
21
-96.7559
0
LINE
8
BLACK
6
CONTINUOUS
10
163.594
20
-44.1189
11
150.791
21
-46.3764
0
ARC
8
BLACK
10
235.663
20
-67.1678
40
0.499974
50
-90.003
51
0.00114598
0
ARC
8
BLACK
10
23.2551
20
-29.0678
40
0.499973
50
-90.003
51
0.00103138
0
ARC
8
BLACK
10
217.111
20
-87.0785
40
0.500035
50
-79.9959
51
9.9966
0
LINE
8
BLACK
6
CONTINUOUS
10
217.603
20
-86.9917
11
215.346
21
-74.1892
0
ARC
8
BLACK
10
153.136
20
-59.6712
40
0.500056
50
-169.994
51
-80.0072
0
ARC
8
BLACK
10
268.143
20
-35.1179
40
0.500109
50
0.0122583
51
89.9858
0
LINE
8
BLACK
6
CONTINUOUS
10
9.75507
20
-16.0678
11
9.75507
21
-29.0678
0
ARC
8
BLACK
10
163.898
20
-38.4297
40
0.499978
50
-170.002
51
-80.0009
0
ARC
8
BLACK
10
100.475
20
-102.654
40
1.50006
50
80.0023
51
169.995
0
LINE
8
BLACK
6
CONTINUOUS
10
249.333
20
-15.5678
11
247.395
21
-15.5678
0
LINE
8
BLACK
6
CONTINUOUS
10
241.213
20
-54.1678
11
241.213
21
-67.1678
0
ARC
8
BLACK
10
22.2072
20
-35.1179
40
0.500109
50
0.0124874
51
89.9858
0
LINE
8
BLACK
6
CONTINUOUS
10
258.858
20
-15.5678
11
252.808
21
-15.5678
0
LINE
8
BLACK
6
CONTINUOUS
10
109.108
20
-63.483
11
96.3054
21
-61.2255
0
LINE
8
BLACK
6
CONTINUOUS
10
268.143
20
-34.6178
11
255.143
21
-34.6178
0
ARC
8
BLACK
10
244.007
20
-92.9427
40
1.29999
50
-0.000220373
51
90.0013
0
LINE
8
BLACK
6
CONTINUOUS
10
67.6593
20
-31.7027
11
80.4618
21
-33.9601
0
ARC
8
BLACK
10
83.3884
20
-93.0155
40
0.499948
50
-100.006
51
-9.99776
0
ARC
8
BLACK
10
257.094
20
-54.1679
40
0.500108
50
0.0123728
51
89.9859
0
LINE
8
BLACK
6
CONTINUOUS
10
228.949
20
-48.6178
11
241.949
21
-48.6178
0
ARC
8
BLACK
10
100.691
20
-56.3634
40
0.499892
50
-100.012
51
-9.9868
0
LINE
8
BLACK
6
CONTINUOUS
10
230.164
20
-73.2178
11
230.164
21
-86.2178
0
LINE
8
BLACK
6
CONTINUOUS
10
153.223
20
-60.1637
11
166.025
21
-57.9062
0
ARC
8
BLACK
10
171.896
20
-56.3632
40
0.500057
50
-169.994
51
-80.0087
0
ARC
8
BLACK
10
279.55
20
-14.6614
40
4.99998
50
-0.000183347
51
90.0002
0
ARC
8
BLACK
10
235.982
20
-8.1614
40
0.499927
50
-270.008
51
-179.998
0
ARC
8
BLACK
10
105.713
20
-17.8756
40
1.29992
50
-100.003
51
-9.99882
0
LINE
8
BLACK
6
CONTINUOUS
10
55.3902
20
-87.5709
11
70.5378
21
-90.2419
0
ARC
8
BLACK
10
96.2185
20
-61.7178
40
0.499943
50
79.9935
51
170.014
0
ARC
8
BLACK
10
28.5801
20
-92.943
40
1.3
50
-0.000132223
51
90.0012
0
ARC
8
BLACK
10
165.686
20
-97.1614
40
0.500079
50
-169.991
51
-80.0103
0
LINE
8
BLACK
6
CONTINUOUS
10
145.768
20
-100.166
11
159.783
21
-97.6947
0
ARC
8
BLACK
10
41.9241
20
-86.2178
40
0.499974
50
-90.0031
51
0.00103138
0
ARC
8
BLACK
10
176.701
20
-36.1723
40
0.4999
50
-80.0113
51
10.0075
0
ARC
8
BLACK
10
91.0205
20
-100.987
40
1.50007
50
-9.99754
51
79.9963
0
ARC
8
BLACK
10
23.7312
20
-54.1679
40
0.500108
50
0.0124874
51
89.9859
0
LINE
8
BLACK
6
CONTINUOUS
10
86.4198
20
-35.0107
11
99.2223
21
-37.2681
0
ARC
8
BLACK
10
136.294
20
-13.8252
40
10.0002
50
-100.002
51
-79.9983
0
ARC
8
BLACK
10
106.764
20
-76.778
40
0.499885
50
-100.013
51
-9.98543
0
ARC
8
BLACK
10
50.3678
20
-47.4898
40
0.500074
50
-189.991
51
-100.017
0
LINE
8
BLACK
6
CONTINUOUS
10
160.188
20
-97.1155
11
157.757
21
-83.3282
0
ARC
8
BLACK
10
159.839
20
-83.9765
40
0.500098
50
-259.989
51
-170.009
0
ARC
8
BLACK
10
23.1366
20
-87.243
40
5
50
-180
51
-90
0
LINE
8
BLACK
6
CONTINUOUS
10
244.094
20
-53.6678
11
241.713
21
-53.6678
0
LINE
8
BLACK
6
CONTINUOUS
10
82.4231
20
-53.1421
11
84.6806
21
-40.3396
0
LINE
8
BLACK
6
CONTINUOUS
10
235.663
20
-53.6678
11
222.663
21
-53.6678
0
ARC
8
BLACK
10
108.61
20
-17.5739
40
0.499973
50
-10.003
51
79.9979
0
LINE
8
BLACK
6
CONTINUOUS
10
182.746
20
-35.6141
11
195.548
21
-33.3567
0
LINE
8
BLACK
6
CONTINUOUS
10
179.119
20
-74.4336
11
176.862
21
-61.6311
0
LINE
8
BLACK
6
CONTINUOUS
10
97.1669
20
-101.258
11
96.9411
21
-102.538
0
ARC
8
BLACK
10
222.663
20
-67.1678
40
0.499991
50
-180.001
51
-90.0031
0
ARC
8
BLACK
10
181.567
20
-100.987
40
1.49996
50
-260.001
51
-170.001
0
ARC
8
BLACK
10
67.7461
20
-31.2102
40
0.500061
50
-189.993
51
-100.002
0
ARC
8
BLACK
10
105.713
20
-17.8756
40
1.29994
50
-190.003
51
-99.9946
0
ARC
8
BLACK
10
105.267
20
-37.8262
40
0.50006
50
-189.993
51
-100.005
0
ARC
8
BLACK
10
174.869
20
-80.3109
40
0.500087
50
-259.99
51
-170.007
0
LINE
8
BLACK
6
CONTINUOUS
10
174.356
20
-22.8773
11
161.554
21
-25.1348
0
LINE
8
BLACK
6
CONTINUOUS
10
213.803
20
-54.6095
11
201.001
21
-56.867
0
LINE
8
BLACK
6
CONTINUOUS
10
29.0804
20
-7.66181
11
27.5801
21
-7.66181
0
LINE
8
BLACK
6
CONTINUOUS
10
75.1137
20
-71.7048
11
87.9162
21
-73.9623
0
ARC
8
BLACK
10
110.491
20
-96.779
40
0.499923
50
-100.009
51
-9.99479
0
LINE
8
BLACK
6
CONTINUOUS
10
96.9411
20
-102.538
11
98.4183
21
-102.799
0
ARC
8
BLACK
10
71.4999
20
-57.3593
40
0.499937
50
-10.0073
51
80.0034
0
LINE
8
BLACK
6
CONTINUOUS
10
101.653
20
-23.4808
11
88.8509
21
-21.2233
0
LINE
8
BLACK
6
CONTINUOUS
10
114.83
20
-83.3282
11
112.399
21
-97.1155
0
LINE
8
BLACK
6
CONTINUOUS
10
271.858
20
-15.5678
11
271.271
21
-15.5678
0
ARC
8
BLACK
10
49.9251
20
-54.1678
40
0.500008
50
0.000916782
51
90.003
0
ARC
8
BLACK
10
95.8865
20
-101.032
40
1.3001
50
-9.99558
51
79.9961
0
ARC
8
BLACK
10
230.664
20
-86.2178
40
0.499991
50
-180.001
51
-90.003
0
LINE
8
BLACK
6
CONTINUOUS
10
174.377
20
-80.3977
11
174.464
21
-80.8901
0
LINE
8
BLACK
6
CONTINUOUS
10
181.357
20
-79.6745
11
181.27
21
-79.1821
0
LINE
8
BLACK
6
CONTINUOUS
10
105.18
20
-38.3187
11
117.983
21
-40.5761
0
LINE
8
BLACK
6
CONTINUOUS
10
9.20732
20
-48.6178
11
22.2073
21
-48.6178
0
LINE
8
BLACK
6
CONTINUOUS
10
243.583
20
-9.66141
11
279.55
21
-9.66142
0
ARC
8
BLACK
10
241.207
20
-93.7427
40
0.500008
50
-179.999
51
-90.0029
0
LINE
8
BLACK
6
CONTINUOUS
10
240.395
20
-15.5678
11
239.808
21
-15.5678
0
LINE
8
BLACK
6
CONTINUOUS
10
228.449
20
-35.1178
11
228.449
21
-48.1178
0
LINE
8
BLACK
6
CONTINUOUS
10
284.55
20
-14.6614
11
284.55
21
-68.1927
0
ARC
8
BLACK
10
77.4795
20
-91.9736
40
0.499981
50
-190.002
51
-99.9997
0
LINE
8
BLACK
6
CONTINUOUS
10
144.314
20
-67.3702
11
146.571
21
-80.1727
0
ARC
8
BLACK
10
31.3803
20
-93.743
40
0.500075
50
-89.9909
51
-0.000458297
0
LINE
8
BLACK
6
CONTINUOUS
10
254.713
20
-67.6678
11
257.094
21
-67.6678
0
ARC
8
BLACK
10
174.443
20
-23.3697
40
0.499954
50
9.99472
51
100.005
0
LINE
8
BLACK
6
CONTINUOUS
10
174.464
20
-80.8901
11
159.753
21
-83.484
0
ARC
8
BLACK
10
193.204
20
-20.0617
40
0.499954
50
9.99483
51
100.006
0
ARC
8
BLACK
10
233.758
20
-15.6868
40
0.500009
50
0.000916782
51
90.003
0
LINE
8
BLACK
6
CONTINUOUS
10
161.148
20
-25.714
11
163.406
21
-38.5165
0
LINE
8
BLACK
6
CONTINUOUS
10
106.563
20
-57.9062
11
119.365
21
-60.1637
0
ARC
8
BLACK
10
110.579
20
-17.9214
40
1.49981
50
-190.007
51
-99.9935
0
LINE
8
BLACK
6
CONTINUOUS
10
243.664
20
-72.7178
11
230.664
21
-72.7178
0
LINE
8
BLACK
6
CONTINUOUS
10
18.1366
20
-87.243
11
18.1366
21
-74.6927
0
ARC
8
BLACK
10
244.007
20
-92.9427
40
1.29993
50
-270.003
51
-180
0
LINE
8
BLACK
6
CONTINUOUS
10
56.3531
20
-68.3968
11
69.1556
21
-70.6543
0
LINE
8
BLACK
6
CONTINUOUS
10
33.3807
20
-92.2396
11
49.1833
21
-92.2418
0
ARC
8
BLACK
10
91.8097
20
-79.269
40
0.500107
50
80.0125
51
169.998
0
ARC
8
BLACK
10
145.681
20
-99.6735
40
0.49996
50
-170.005
51
-79.9873
0
ARC
8
BLACK
10
23.7801
20
-93.743
40
1.5
50
-0.000229187
51
90.0009
0
LINE
8
BLACK
6
CONTINUOUS
10
163.985
20
-38.9221
11
176.788
21
-36.6647
0
ARC
8
BLACK
10
243.583
20
-8.1614
40
1.50001
50
-179.999
51
-90.0011
0
LINE
8
BLACK
6
CONTINUOUS
10
178.786
20
-14.4551
11
177.309
21
-14.7156
0
LINE
8
BLACK
6
CONTINUOUS
10
246.807
20
-94.2427
11
245.307
21
-94.2427
0
LINE
8
BLACK
6
CONTINUOUS
10
-2.43742
20
-68.1927
11
-2.43742
21
-14.6614
0
LINE
8
BLACK
6
CONTINUOUS
10
77.3927
20
-92.466
11
83.3015
21
-93.5079
0
LINE
8
BLACK
6
CONTINUOUS
10
184.671
20
-73.9623
11
197.474
21
-71.7048
0
LINE
8
BLACK
6
CONTINUOUS
10
28.8051
20
-16.0678
11
28.8051
21
-29.0678
0
LINE
8
BLACK
6
CONTINUOUS
10
240.083
20
-7.66141
11
240.083
21
-8.96142
0
LINE
8
BLACK
6
CONTINUOUS
10
272.358
20
-29.0678
11
272.358
21
-16.0678
0
ARC
8
BLACK
10
101.125
20
-16.254
40
1.50011
50
-99.996
51
-10.0072
0
ARC
8
BLACK
10
145.138
20
-41.7377
40
0.499979
50
-170.002
51
-79.9993
0
LINE
8
BLACK
6
CONTINUOUS
10
241.583
20
-7.66141
11
240.083
21
-7.66141
0
LINE
8
BLACK
6
CONTINUOUS
10
171.983
20
-56.8557
11
184.786
21
-54.5982
0
ARC
8
BLACK
10
184.585
20
-73.4697
40
0.500142
50
-169.984
51
-80.0114
0
ARC
8
BLACK
10
255.143
20
-35.1178
40
0.499977
50
89.9972
51
179.999
0
ARC
8
BLACK
10
57.7344
20
-74.2759
40
0.499944
50
79.9939
51
170.013
0
LINE
8
BLACK
6
CONTINUOUS
10
65.5144
20
-36.4524
11
52.7119
21
-34.1949
0
LINE
8
BLACK
6
CONTINUOUS
10
242.707
20
-92.9427
11
242.707
21
-94.2427
0
LINE
8
BLACK
6
CONTINUOUS
10
2.56258
20
-9.66141
11
21.4801
21
-9.66141
0
ARC
8
BLACK
10
112.748
20
-83.9764
40
0.499952
50
-10.0054
51
80.0039
0
LINE
8
BLACK
6
CONTINUOUS
10
98.124
20
-80.8901
11
98.2108
21
-80.3977
0
ARC
8
BLACK
10
211.964
20
-16.7537
40
0.499952
50
9.99452
51
100.008
0
LINE
8
BLACK
6
CONTINUOUS
10
239.308
20
-16.0678
11
239.308
21
-29.0678
0
ARC
8
BLACK
10
235.663
20
-54.1678
40
0.500008
50
0.00103138
51
90.003
0
ARC
8
BLACK
10
233.982
20
-8.1614
40
1.50007
50
-89.9972
51
-0.000534735
0
ARC
8
BLACK
10
52.6251
20
-34.6874
40
0.500044
50
80.0053
51
169.995
0
LINE
8
BLACK
6
CONTINUOUS
10
101.184
20
-56.4501
11
103.441
21
-43.6476
0
ARC
8
BLACK
10
159.866
20
-77.8284
40
0.500047
50
-79.9946
51
9.99589
0
LINE
8
BLACK
6
CONTINUOUS
10
8.70732
20
-35.1178
11
8.70732
21
-48.1178
0
LINE
8
BLACK
6
CONTINUOUS
10
254.713
20
-53.6678
11
244.094
21
-53.6678
0
ARC
8
BLACK
10
69.1284
20
-50.7977
40
0.500173
50
-189.98
51
-100.017
0
LINE
8
BLACK
6
CONTINUOUS
10
182.355
20
-40.8109
11
169.552
21
-43.0684
0
ARC
8
BLACK
10
278.525
20
-54.1678
40
0.500009
50
0.00103138
51
90.003
0
ARC
8
BLACK
10
246.807
20
-93.7427
40
0.500074
50
-89.9914
51
-0.000458298
0
ARC
8
BLACK
10
29.0804
20
-8.1618
40
0.499986
50
-0.00148976
51
90.003
0
LINE
8
BLACK
6
CONTINUOUS
10
203.432
20
-70.6543
11
216.235
21
-68.3968
0
ARC
8
BLACK
10
9.20729
20
-35.1178
40
0.499966
50
-270.004
51
-179.996
0
ARC
8
BLACK
10
220.758
20
-28.6868
40
0.499992
50
-180.001
51
-90.003
0
LINE
8
BLACK
6
CONTINUOUS
10
58.205
20
-55.0151
11
55.9475
21
-67.8176
0
ARC
8
BLACK
10
84.1882
20
-40.2527
40
0.499921
50
-10.0091
51
80.0041
0
ARC
8
BLACK
10
126.906
20
-99.6733
40
0.500071
50
-99.992
51
-10.0151
0
ARC
8
BLACK
10
159.696
20
-97.2023
40
0.500054
50
-79.9937
51
9.99934
0
LINE
8
BLACK
6
CONTINUOUS
10
165.107
20
-96.7559
11
165.194
21
-97.2483
0
LINE
8
BLACK
6
CONTINUOUS
10
104.659
20
-16.3696
11
103.182
21
-16.1091
0
ARC
8
BLACK
10
248.807
20
-93.7427
40
1.49992
50
-270.003
51
-180
0
ARC
8
BLACK
10
176.701
20
-101.033
40
1.30005
50
10.0021
51
99.9979
0
ARC
8
BLACK
10
95.8865
20
-101.032
40
1.29988
50
79.9945
51
170.004
0
LINE
8
BLACK
6
CONTINUOUS
10
24.2313
20
-67.1678
11
24.2313
21
-54.1678
0
ARC
8
BLACK
10
28.9241
20
-73.2178
40
0.500026
50
90.003
51
179.999
0
ARC
8
BLACK
10
222.663
20
-54.1678
40
0.500027
50
90.003
51
179.999
0
LINE
8
BLACK
6
CONTINUOUS
10
202.05
20
-90.2419
11
217.197
21
-87.5709
0
ARC
8
BLACK
10
92.9901
20
-101.334
40
0.499926
50
-190.008
51
-99.9874
0
ARC
8
BLACK
10
85.8195
20
-79.2281
40
0.499925
50
-10.0084
51
80.0071
0
LINE
8
BLACK
6
CONTINUOUS
10
185.191
20
-54.019
11
182.934
21
-41.2165
0
ARC
8
BLACK
10
257.094
20
-67.1678
40
0.499923
50
-90.0087
51
0.00103148
0
ARC
8
BLACK
10
230.664
20
-73.2178
40
0.500027
50
90.003
51
179.999
0
ARC
8
BLACK
10
238.783
20
-8.9614
40
1.30001
50
-179.999
51
-90.0013
0
LINE
8
BLACK
6
CONTINUOUS
10
28.4241
20
-73.2178
11
28.4241
21
-86.2178
0
ARC
8
BLACK
10
195.13
20
-58.41
40
0.500051
50
10.0059
51
99.9872
0
ARC
8
BLACK
10
121.232
20
-84.4569
40
0.500024
50
-9.99711
51
79.999
0
LINE
8
BLACK
6
CONTINUOUS
10
199.213
20
-77.0338
11
201.471
21
-89.8363
0
LINE
8
BLACK
6
CONTINUOUS
10
201.115
20
-37.5029
11
188.313
21
-39.7604
0
LINE
8
BLACK
6
CONTINUOUS
10
181.835
20
-60.7542
11
184.092
21
-73.5567
0
ARC
8
BLACK
10
151.356
20
-84.4569
40
0.499962
50
-260.004
51
-170.002
0
LINE
8
BLACK
6
CONTINUOUS
10
108.414
20
-44.5245
11
106.157
21
-57.327
0
ARC
8
BLACK
10
163.567
20
-63.9754
40
0.500079
50
-259.991
51
-170.007
0
LINE
8
BLACK
6
CONTINUOUS
10
179.909
20
-22.406
11
182.166
21
-35.2085
0
LINE
8
BLACK
6
CONTINUOUS
10
64.1322
20
-16.8648
11
51.3297
21
-14.6074
0
ARC
8
BLACK
10
201.202
20
-37.9954
40
0.500055
50
10.0062
51
99.9993
0
LINE
8
BLACK
6
CONTINUOUS
10
79.4182
20
-78.0994
11
76.9871
21
-91.8868
0
ARC
8
BLACK
10
10.7314
20
-67.1677
40
0.500091
50
-179.989
51
-90.0087
0
ARC
8
BLACK
10
22.2074
20
-48.1178
40
0.499924
50
-90.0087
51
0.00103148
0
ARC
8
BLACK
10
127.782
20
-67.2834
40
0.50005
50
-9.99436
51
79.9985
0
LINE
8
BLACK
6
CONTINUOUS
10
175.421
20
-101.259
11
175.647
21
-102.539
0
ARC
8
BLACK
10
25.7801
20
-93.743
40
0.500004
50
-179.999
51
-90.0032
0
ARC
8
BLACK
10
21.48
20
-8.16177
40
1.50004
50
-89.9983
51
-0.00160423
0
ARC
8
BLACK
10
195.108
20
-91.9736
40
0.500044
50
-79.9949
51
10.0012
0
LINE
8
BLACK
6
CONTINUOUS
10
174.974
20
-16.4473
11
174.749
21
-15.1671
0
ARC
8
BLACK
10
180.778
20
-79.2689
40
0.499946
50
9.99374
51
100.007
0
LINE
8
BLACK
6
CONTINUOUS
10
107.219
20
-16.8211
11
106.994
21
-18.1013
0
LINE
8
BLACK
6
CONTINUOUS
10
237.483
20
-7.66141
11
235.983
21
-7.66141
0
ARC
8
BLACK
10
29.3051
20
-29.0678
40
0.499991
50
-180.001
51
-90.0031
0
ARC
8
BLACK
10
33.3804
20
-93.7396
40
1.50002
50
-270.012
51
-179.999
0
LINE
8
BLACK
6
CONTINUOUS
10
118.562
20
-40.1705
11
120.82
21
-27.368
0
LINE
8
BLACK
6
CONTINUOUS
10
52.1327
20
-34.6005
11
49.8752
21
-47.403
0
LINE
8
BLACK
6
CONTINUOUS
10
121.796
20
-46.3764
11
108.994
21
-44.1189
0
ARC
8
BLACK
10
41.9241
20
-73.2178
40
0.500009
50
0.00091678
51
90.003
0
LINE
8
BLACK
6
CONTINUOUS
10
91.2811
20
-99.5095
11
50.9181
21
-92.3937
0
LINE
8
BLACK
6
CONTINUOUS
10
237.483
20
-8.96141
11
237.483
21
-7.66141
0
ARC
8
BLACK
10
157.94
20
-39.4803
40
0.499912
50
-80.01
51
10.0073
0
LINE
8
BLACK
6
CONTINUOUS
10
31.0804
20
-9.66181
11
54.2225
21
-9.66181
0
ARC
8
BLACK
10
182.441
20
-41.3034
40
0.500057
50
10.0064
51
99.9979
0
ARC
8
BLACK
10
43.6386
20
-35.1178
40
0.500009
50
0.00103138
51
90.003
0
ARC
8
BLACK
10
107.525
20
-25.0238
40
0.500029
50
80.0036
51
169.995
0
ARC
8
BLACK
10
271.858
20
-29.0678
40
0.499974
50
-90.0028
51
0.00103138
0
LINE
8
BLACK
6
CONTINUOUS
10
177.309
20
-14.7156
11
177.535
21
-15.9958
0
LINE
8
BLACK
6
CONTINUOUS
10
264.771
20
-29.5678
11
270.771
21
-29.5678
0
ARC
8
BLACK
10
246.895
20
-15.0678
40
0.500009
50
0.00103138
51
90.003
0
ARC
8
BLACK
10
171.595
20
-96.1196
40
0.500068
50
-79.992
51
9.9979
0
LINE
8
BLACK
6
CONTINUOUS
10
36.4251
20
-54.1678
11
36.4251
21
-67.1678
0
ARC
8
BLACK
10
270.771
20
-15.0678
40
0.50001
50
0.00091678
51
90.003
0
LINE
8
BLACK
6
CONTINUOUS
10
262.333
20
-29.5678
11
264.771
21
-29.5678
0
ARC
8
BLACK
10
28.5801
20
-92.943
40
1.30003
50
90.0015
51
179.999
0
ARC
8
BLACK
10
70.0036
20
-18.4079
40
0.500122
50
80.014
51
169.986
0
ARC
8
BLACK
10
197.387
20
-71.2124
40
0.50012
50
-79.9862
51
9.99383
0
ARC
8
BLACK
10
121.709
20
-46.8687
40
0.499922
50
-10.0088
51
80.0071
0
LINE
8
BLACK
6
CONTINUOUS
10
112.805
20
-97.6947
11
126.82
21
-100.166
0
ARC
8
BLACK
10
186.768
20
-79.2282
40
0.500071
50
-259.992
51
-170.006
0
ARC
8
BLACK
10
263.144
20
-54.1678
40
0.499977
50
89.9972
51
179.999
0
ARC
8
BLACK
10
188.399
20
-40.2528
40
0.499999
50
-260
51
-170.003
0
LINE
8
BLACK
6
CONTINUOUS
10
179.684
20
-101.827
11
178.207
21
-102.087
0
LINE
8
BLACK
6
CONTINUOUS
10
127.399
20
-99.7603
11
129.656
21
-86.9578
0
LINE
8
BLACK
6
CONTINUOUS
10
263.144
20
-67.6678
11
265.525
21
-67.6678
0
ARC
8
BLACK
10
279.55
20
-68.1927
40
5.00008
50
-89.999
51
-3.43769e-05
0
LINE
8
BLACK
6
CONTINUOUS
10
230.664
20
-86.7178
11
243.664
21
-86.7178
0
LINE
8
BLACK
6
CONTINUOUS
10
195.954
20
-32.7774
11
193.696
21
-19.9749
0
ARC
8
BLACK
10
219.963
20
-34.6873
40
0.499956
50
9.995
51
100.003
0
ARC
8
BLACK
10
201.419
20
-31.8137
40
0.499979
50
-170.002
51
-80.0037
0
LINE
8
BLACK
6
CONTINUOUS
10
89.6538
20
-41.2165
11
87.3964
21
-54.019
0
ARC
8
BLACK
10
240.895
20
-15.0678
40
0.500025
50
90.003
51
179.999
0
LINE
8
BLACK
6
CONTINUOUS
10
150.864
20
-84.5437
11
150.95
21
-85.0361
0
LINE
8
BLACK
6
CONTINUOUS
10
265.525
20
-67.6678
11
276.144
21
-67.6678
0
ARC
8
BLACK
10
182.659
20
-35.1217
40
0.499978
50
-170.002
51
-80.0019
0
LINE
8
BLACK
6
CONTINUOUS
10
82.8928
20
-20.1728
11
70.0903
21
-17.9154
0
ARC
8
BLACK
10
23.7314
20
-67.1678
40
0.499923
50
-90.0087
51
0.00103148
0
LINE
8
BLACK
6
CONTINUOUS
10
27.2801
20
-94.243
11
25.7801
21
-94.243
0
LINE
8
BLACK
6
CONTINUOUS
10
104.433
20
-17.6498
11
104.659
21
-16.3696
0
ARC
8
BLACK
10
255.143
20
-48.1177
40
0.500092
50
-179.989
51
-90.0088
  0
ENDSEC
  0
EOF
