  0
SECTION
  2
HEADER
  9
$ANGBASE
  50
0.0
  9
$ANGDIR
  70
1
  9
$MEASUREMENT
  70
1
  0
ENDSEC
  0
SECTION
  2
TABLES
  0
TABLE
  2
LTYPE
  70
4
  0
LTYPE
  5
40F
  2
CONTINUOUS
  70
0
  3
Solid line
  72
65
  73
0
  40
0.0
  0
LTYPE
  5
410
  2
DASHDOT
 70
0
  3
Dash Dot ____ _ ____ _
 72
65
 73
4
 40
2.0
 49
1.25
 49
-0.25
 49
0.25
 49
-0.25
  0
LTYPE
  5
411
  2
DASHED
 70
0
  3
Dashed __ __ __ __ __
 72
65
 73
2
 40
0.75
 49
0.5
 49
-0.25
  0
LTYPE
  5
43B
  2
DOTTED
 70
0
  3
Dotted .  .  .  .
 72
65
 73
2
 40
0.2
 49
0.0
 49
-0.2
  0
ENDTAB
  0
TABLE
  2
STYLE
  70
4
  0
STYLE
  2
KICAD
  70
0
  40
0
  41
1
  42
1
  50
0
  71
0
  3
isocp.shx
  0
STYLE
  2
KICADB
  70
0
  40
0
  41
1
  42
1
  50
0
  71
0
  3
isocp.shx
  0
STYLE
  2
KICADI
  70
0
  40
0
  41
1
  42
1
  50
15
  71
0
  3
isocp.shx
  0
STYLE
  2
KICADBI
  70
0
  40
0
  41
1
  42
1
  50
15
  71
0
  3
isocp.shx
  0
ENDTAB
  0
TABLE
  2
LAYER
  70
1
  0
LAYER
  2
BLACK
  70
0
  62
7
  6
CONTINUOUS
  0
ENDTAB
  0
ENDSEC
  0
SECTION
  2
ENTITIES
0
LINE
8
BLACK
6
CONTINUOUS
10
250.562
20
-47.7548
11
263.562
21
-47.7548
0
ARC
8
BLACK
10
180.118
20
-53.2429
40
0.499969
50
-80.0036
51
10.0094
0
LINE
8
BLACK
6
CONTINUOUS
10
182.537
20
-91.5042
11
180.279
21
-78.7017
0
ARC
8
BLACK
10
196.507
20
-56.4963
40
0.5
50
-260
51
-169.995
0
ARC
8
BLACK
10
152.684
20
-82.552
40
0.500029
50
10.0032
51
99.9992
0
LINE
8
BLACK
6
CONTINUOUS
10
145.805
20
-46.0926
11
148.063
21
-58.8951
0
LINE
8
BLACK
6
CONTINUOUS
10
12.056
20
-72.3297
11
-2.018
21
-72.3297
0
ARC
8
BLACK
10
153.028
20
-64.1628
40
0.4999
50
9.98885
51
100.008
0
LINE
8
BLACK
6
CONTINUOUS
10
194.089
20
-18.235
11
196.346
21
-31.0375
0
ARC
8
BLACK
10
83.4226
20
-72.607
40
0.499815
50
-100.021
51
-9.98509
0
LINE
8
BLACK
6
CONTINUOUS
10
242.814
20
-14.7048
11
242.814
21
-14.2048
0
ARC
8
BLACK
10
24.3435
20
-85.3548
40
0.499975
50
-180.003
51
-90.0007
0
ARC
8
BLACK
10
184.619
20
-92.1525
40
0.499956
50
-170.005
51
-79.9972
0
LINE
8
BLACK
6
CONTINUOUS
10
210.134
20
-28.6064
11
207.876
21
-15.8039
0
ARC
8
BLACK
10
176.065
20
-13.7722
40
1.49977
50
-170.009
51
-79.9934
0
ARC
8
BLACK
10
102.847
20
-16.5025
40
1.49996
50
-10.0016
51
80.0012
0
LINE
8
BLACK
6
CONTINUOUS
10
259.69
20
-14.7048
11
257.752
21
-14.7048
0
LINE
8
BLACK
6
CONTINUOUS
10
242.314
20
-28.7048
11
244.752
21
-28.7048
0
LINE
8
BLACK
6
CONTINUOUS
10
18.1267
20
-47.2548
11
18.1267
21
-34.2548
0
LINE
8
BLACK
6
CONTINUOUS
10
85.7667
20
-59.3119
11
72.9642
21
-57.0545
0
LINE
8
BLACK
6
CONTINUOUS
10
121.436
20
-79.3097
11
123.693
21
-66.5072
0
LINE
8
BLACK
6
CONTINUOUS
10
98.455
20
-42.2053
11
85.6525
21
-39.9479
0
ARC
8
BLACK
10
146.298
20
-46.0057
40
0.499966
50
-260.004
51
-169.994
0
ARC
8
BLACK
10
54.1166
20
-54.2387
40
0.499786
50
79.9754
51
170.021
0
ARC
8
BLACK
10
217.639
20
-46.6268
40
0.500025
50
-79.9971
51
9.99576
0
LINE
8
BLACK
6
CONTINUOUS
10
24.7245
20
-28.7048
11
37.7245
21
-28.7048
0
LINE
8
BLACK
6
CONTINUOUS
10
196.926
20
-31.4431
11
209.728
21
-29.1856
0
LINE
8
BLACK
6
CONTINUOUS
10
167.42
20
-94.6774
11
182.131
21
-92.0834
0
ARC
8
BLACK
10
96.4122
20
-95.2566
40
0.499988
50
-190.001
51
-100.001
0
LINE
8
BLACK
6
CONTINUOUS
10
142.57
20
-79.7152
11
155.372
21
-77.4578
0
ARC
8
BLACK
10
124.583
20
-86.008
40
0.500091
50
-9.98945
51
79.9914
0
ARC
8
BLACK
10
-2.018
20
-13.7984
40
5
50
-270
51
-180
0
ARC
8
BLACK
10
75.968
20
-32.6046
40
0.500009
50
-99.9992
51
-10.0077
0
LINE
8
BLACK
6
CONTINUOUS
10
138.351
20
-86.0947
11
140.608
21
-98.8972
0
LINE
8
BLACK
6
CONTINUOUS
10
167.469
20
-100.279
11
142.778
21
-104.632
0
LINE
8
BLACK
6
CONTINUOUS
10
161.192
20
-96.7909
11
167.101
21
-95.749
0
LINE
8
BLACK
6
CONTINUOUS
10
79.6944
20
-38.8973
11
66.8919
21
-36.6399
0
LINE
8
BLACK
6
CONTINUOUS
10
252.513
20
-52.8048
11
250.132
21
-52.8048
0
ARC
8
BLACK
10
174.046
20
-73.6574
40
0.499958
50
-80.005
51
9.99954
0
LINE
8
BLACK
6
CONTINUOUS
10
244.752
20
-28.7048
11
248.227
21
-28.7048
0
ARC
8
BLACK
10
75.33
20
-77.3232
40
0.499989
50
79.9987
51
170.006
0
ARC
8
BLACK
10
98.3682
20
-42.6977
40
0.499942
50
-10.0063
51
80.0034
0
ARC
8
BLACK
10
151.102
20
-25.8147
40
0.499966
50
9.99606
51
100.001
0
ARC
8
BLACK
10
237.368
20
-34.2548
40
0.500026
50
0.00297942
51
90.0007
0
ARC
8
BLACK
10
115.747
20
-26.418
40
0.499806
50
-10.0222
51
80.0196
0
LINE
8
BLACK
6
CONTINUOUS
10
218.082
20
-66.8048
11
231.082
21
-66.8048
0
LINE
8
BLACK
6
CONTINUOUS
10
19.3995
20
-91.38
11
18.556
21
-91.38
0
ARC
8
BLACK
10
108.311
20
-96.3393
40
0.499976
50
-190.003
51
-99.9988
0
LINE
8
BLACK
6
CONTINUOUS
10
64.4608
20
-50.4272
11
77.2633
21
-52.6847
0
LINE
8
BLACK
6
CONTINUOUS
10
257.752
20
-14.7048
11
254.277
21
-14.7048
0
LINE
8
BLACK
6
CONTINUOUS
10
117.057
20
-84.1731
11
117.144
21
-83.6807
0
LINE
8
BLACK
6
CONTINUOUS
10
155.778
20
-76.8786
11
153.52
21
-64.0761
0
LINE
8
BLACK
6
CONTINUOUS
10
183.327
20
-39.4766
11
185.584
21
-52.2791
0
ARC
8
BLACK
10
177.747
20
-59.8043
40
0.499984
50
-260.002
51
-169.995
0
LINE
8
BLACK
6
CONTINUOUS
10
66.3127
20
-37.0455
11
64.0552
21
-49.848
0
ARC
8
BLACK
10
229.177
20
-27.8237
40
0.500094
50
-89.9892
51
-0.00836361
0
ARC
8
BLACK
10
263.562
20
-47.2548
40
0.500046
50
-89.9948
51
0.00286453
0
LINE
8
BLACK
6
CONTINUOUS
10
108.054
20
-77.4578
11
120.857
21
-79.7152
0
ARC
8
BLACK
10
60.847
20
-36.0817
40
0.499942
50
-10.0066
51
80.0005
0
LINE
8
BLACK
6
CONTINUOUS
10
23.2998
20
-5.7988
11
20.0995
21
-5.7988
0
ARC
8
BLACK
10
122.391
20
-94.7844
40
9.99977
50
-99.997
51
-89.9984
0
LINE
8
BLACK
6
CONTINUOUS
10
217.582
20
-53.3048
11
217.582
21
-66.3048
0
ARC
8
BLACK
10
173.111
20
-14.2928
40
1.49991
50
9.99669
51
100
0
LINE
8
BLACK
6
CONTINUOUS
10
239.583
20
-85.3548
11
239.583
21
-72.3548
0
ARC
8
BLACK
10
83.6397
20
-78.7884
40
0.499873
50
79.9858
51
170.009
0
ARC
8
BLACK
10
32.3444
20
-53.3047
40
0.499907
50
-270.011
51
-179.992
0
ARC
8
BLACK
10
72.8773
20
-57.5468
40
0.499915
50
79.9903
51
170.011
0
LINE
8
BLACK
6
CONTINUOUS
10
105.541
20
-18.5007
11
129.976
21
-22.8104
0
ARC
8
BLACK
10
24.7244
20
-15.2047
40
0.499906
50
-270.011
51
-179.991
0
ARC
8
BLACK
10
260.19
20
-14.2047
40
0.499904
50
-270.011
51
-179.992
0
LINE
8
BLACK
6
CONTINUOUS
10
83.1474
20
-78.7017
11
80.89
21
-91.5042
0
LINE
8
BLACK
6
CONTINUOUS
10
254.277
20
-28.7048
11
257.752
21
-28.7048
0
LINE
8
BLACK
6
CONTINUOUS
10
215.295
20
-33.3319
11
202.493
21
-35.5894
0
ARC
8
BLACK
10
44.405
20
-27.0392
40
0.500058
50
-189.993
51
-100.01
0
LINE
8
BLACK
6
CONTINUOUS
10
140.644
20
-41.3671
11
153.446
21
-39.1096
0
ARC
8
BLACK
10
141.042
20
-94.783
40
10.0007
50
-89.9983
51
-80.003
0
LINE
8
BLACK
6
CONTINUOUS
10
161.85
20
-56.464
11
159.593
21
-43.6615
0
LINE
8
BLACK
6
CONTINUOUS
10
116.738
20
-83.1015
11
110.829
21
-82.0596
0
ARC
8
BLACK
10
78.2254
20
-19.8022
40
0.500037
50
-9.99573
51
79.9983
0
ARC
8
BLACK
10
216.177
20
-14.8237
40
0.499906
50
-270.011
51
-179.992
0
LINE
8
BLACK
6
CONTINUOUS
10
25.558
20
-34.2548
11
25.558
21
-47.2548
0
ARC
8
BLACK
10
26.0579
20
-34.2547
40
0.499905
50
-270.011
51
-179.992
0
LINE
8
BLACK
6
CONTINUOUS
10
5.67449
20
-28.7048
11
18.6745
21
-28.7048
0
ARC
8
BLACK
10
211.567
20
-67.0415
40
0.499949
50
-80.0057
51
10.0108
0
LINE
8
BLACK
6
CONTINUOUS
10
45.8445
20
-66.3048
11
45.8445
21
-53.3048
0
ARC
8
BLACK
10
258.563
20
-66.3047
40
0.500074
50
-179.991
51
-90.0062
0
ARC
8
BLACK
10
175.821
20
-21.4561
40
0.499939
50
-260.007
51
-169.991
0
LINE
8
BLACK
6
CONTINUOUS
10
46.1699
20
-14.1499
11
43.9125
21
-26.9524
0
ARC
8
BLACK
10
138.3
20
-28.0721
40
0.500013
50
-259.999
51
-169.993
0
LINE
8
BLACK
6
CONTINUOUS
10
179.7
20
-78.2961
11
176.777
21
-78.8115
0
LINE
8
BLACK
6
CONTINUOUS
10
193.299
20
-70.2626
11
191.042
21
-57.4601
0
LINE
8
BLACK
6
CONTINUOUS
10
115.833
20
-25.9258
11
103.031
21
-23.6683
0
LINE
8
BLACK
6
CONTINUOUS
10
102.9
20
-95.8929
11
105.823
21
-96.4083
0
ARC
8
BLACK
10
49.6422
20
-18.7957
40
9.9969
50
79.9992
51
90.0018
0
ARC
8
BLACK
10
237.368
20
-47.2547
40
0.500095
50
-89.9891
51
-0.00824902
0
ARC
8
BLACK
10
96.986
20
-23.1102
40
0.500039
50
-9.99563
51
79.9996
0
LINE
8
BLACK
6
CONTINUOUS
10
273.944
20
-52.8048
11
271.563
21
-52.8048
0
LINE
8
BLACK
6
CONTINUOUS
10
17.6267
20
-33.7548
11
4.62674
21
-33.7548
0
ARC
8
BLACK
10
102.321
20
-96.2985
40
0.500037
50
-99.9955
51
-9.99678
0
LINE
8
BLACK
6
CONTINUOUS
10
64.9305
20
-17.4579
11
62.6731
21
-30.2604
0
ARC
8
BLACK
10
99.6961
20
-15.9469
40
1.50002
50
80.001
51
169.999
0
ARC
8
BLACK
10
85.5656
20
-40.4403
40
0.499936
50
79.993
51
170.002
0
LINE
8
BLACK
6
CONTINUOUS
10
37.3435
20
-71.8548
11
24.3435
21
-71.8548
0
ARC
8
BLACK
10
167.005
20
-15.3694
40
1.50008
50
-79.9968
51
9.99535
0
LINE
8
BLACK
6
CONTINUOUS
10
146.37
20
-84.1731
11
138.756
21
-85.5155
0
LINE
8
BLACK
6
CONTINUOUS
10
237.868
20
-47.2548
11
237.868
21
-34.2548
0
LINE
8
BLACK
6
CONTINUOUS
10
199.371
20
-49.848
11
197.114
21
-37.0455
0
ARC
8
BLACK
10
44.6013
20
-101.379
40
9.99987
50
80.0016
51
89.992
0
LINE
8
BLACK
6
CONTINUOUS
10
86.7366
20
-78.3191
11
86.6498
21
-78.8115
0
ARC
8
BLACK
10
138.843
20
-86.0078
40
0.499926
50
-260.008
51
-169.984
0
LINE
8
BLACK
6
CONTINUOUS
10
191.02
20
-91.0237
11
188.589
21
-77.2364
0
ARC
8
BLACK
10
186.076
20
-52.1923
40
0.499962
50
-170.004
51
-79.9941
0
LINE
8
BLACK
6
CONTINUOUS
10
188.536
20
-18.7063
11
175.734
21
-20.9638
0
ARC
8
BLACK
10
20.0995
20
-7.2988
40
1.50001
50
90.0002
51
180
0
LINE
8
BLACK
6
CONTINUOUS
10
108.255
20
-82.621
11
93.5434
21
-80.0271
0
ARC
8
BLACK
10
140.225
20
-66.4203
40
0.499962
50
-260.005
51
-169.995
0
ARC
8
BLACK
10
66.0441
20
-88.8866
40
0.499874
50
-100.014
51
-9.98275
0
LINE
8
BLACK
6
CONTINUOUS
10
176.529
20
-98.6818
11
217.085
21
-91.5316
0
ARC
8
BLACK
10
37.7244
20
-28.2047
40
0.500096
50
-89.989
51
-0.00847815
0
LINE
8
BLACK
6
CONTINUOUS
10
259.69
20
-14.2048
11
259.69
21
-14.7048
0
LINE
8
BLACK
6
CONTINUOUS
10
248.227
20
-14.7048
11
244.752
21
-14.7048
0
ARC
8
BLACK
10
32.3445
20
-66.3048
40
0.499972
50
-180.003
51
-90.0006
0
LINE
8
BLACK
6
CONTINUOUS
10
124.67
20
-85.5155
11
117.057
21
-84.1731
0
ARC
8
BLACK
10
68.3016
20
-76.0838
40
0.499845
50
-10.018
51
80.0167
0
LINE
8
BLACK
6
CONTINUOUS
10
93.2247
20
-78.9554
11
87.3158
21
-77.9135
0
ARC
8
BLACK
10
237.826
20
-92.8797
40
1.49999
50
-180
51
-90.0003
0
LINE
8
BLACK
6
CONTINUOUS
10
274.444
20
-66.3048
11
274.444
21
-53.3048
0
LINE
8
BLACK
6
CONTINUOUS
10
109.906
20
-64.0761
11
107.649
21
-76.8786
0
ARC
8
BLACK
10
85.6799
20
-59.8043
40
0.499954
50
-10.0054
51
80.0031
0
LINE
8
BLACK
6
CONTINUOUS
10
167.507
20
-95.1698
11
167.42
21
-94.6774
0
LINE
8
BLACK
6
CONTINUOUS
10
32.3445
20
-66.8048
11
45.3445
21
-66.8048
0
LINE
8
BLACK
6
CONTINUOUS
10
44.3181
20
-27.5316
11
57.1206
21
-29.7891
0
LINE
8
BLACK
6
CONTINUOUS
10
231.582
20
-66.3048
11
231.582
21
-53.3048
0
LINE
8
BLACK
6
CONTINUOUS
10
95.9577
20
-100.279
11
120.655
21
-104.632
0
LINE
8
BLACK
6
CONTINUOUS
10
115.364
20
-58.8951
11
117.621
21
-46.0926
0
LINE
8
BLACK
6
CONTINUOUS
10
137.807
20
-28.159
11
140.065
21
-40.9615
0
ARC
8
BLACK
10
59.4646
20
-16.4943
40
0.500169
50
-9.98067
51
79.976
0
LINE
8
BLACK
6
CONTINUOUS
10
81.3257
20
-77.8727
11
75.4168
21
-76.8309
0
LINE
8
BLACK
6
CONTINUOUS
10
266.19
20
-13.7048
11
260.19
21
-13.7048
0
LINE
8
BLACK
6
CONTINUOUS
10
5.65074
20
-53.3048
11
5.65074
21
-66.3048
0
ARC
8
BLACK
10
157.516
20
-95.916
40
0.499932
50
-170.008
51
-79.9945
0
LINE
8
BLACK
6
CONTINUOUS
10
207.297
20
-15.3983
11
194.495
21
-17.6558
0
LINE
8
BLACK
6
CONTINUOUS
10
274.97
20
-72.3297
11
251.371
21
-72.3297
0
LINE
8
BLACK
6
CONTINUOUS
10
168.482
20
-15.109
11
168.482
21
-15.109
0
ARC
8
BLACK
10
26.058
20
-47.2548
40
0.499975
50
-180.003
51
-90.0007
0
ARC
8
BLACK
10
237.132
20
-66.3048
40
0.499973
50
-180.003
51
-90.0007
0
LINE
8
BLACK
6
CONTINUOUS
10
59.082
20
-48.9711
11
61.3394
21
-36.1686
0
LINE
8
BLACK
6
CONTINUOUS
10
216.177
20
-28.3238
11
229.177
21
-28.3238
0
ARC
8
BLACK
10
165.058
20
-42.6977
40
0.49998
50
-260.002
51
-169.994
0
ARC
8
BLACK
10
209.31
20
-54.239
40
0.500082
50
10.0094
51
99.9974
0
ARC
8
BLACK
10
114.871
20
-58.8083
40
0.499911
50
-100.01
51
-9.99584
0
ARC
8
BLACK
10
110.742
20
-82.5519
40
0.499902
50
79.9888
51
170.006
0
ARC
8
BLACK
10
94.7285
20
-35.9126
40
0.500094
50
-99.9891
51
-10.0057
0
ARC
8
BLACK
10
157.06
20
-24.7641
40
0.499927
50
-260.008
51
-169.991
0
LINE
8
BLACK
6
CONTINUOUS
10
39.058
20
-33.7548
11
26.058
21
-33.7548
0
LINE
8
BLACK
6
CONTINUOUS
10
83.2214
20
-53.7352
11
96.0239
21
-55.9927
0
LINE
8
BLACK
6
CONTINUOUS
10
76.4604
20
-32.6915
11
78.7178
21
-19.889
0
LINE
8
BLACK
6
CONTINUOUS
10
253.013
20
-66.3048
11
253.013
21
-53.3048
0
ARC
8
BLACK
10
209.641
20
-28.6932
40
0.500077
50
-79.9911
51
9.99342
0
LINE
8
BLACK
6
CONTINUOUS
10
98.2189
20
-15.6864
11
98.2189
21
-15.6864
0
ARC
8
BLACK
10
5.6745
20
-15.2048
40
0.500006
50
90.0007
51
179.999
0
ARC
8
BLACK
10
202.579
20
-36.0817
40
0.500007
50
-259.999
51
-169.994
0
ARC
8
BLACK
10
239.083
20
-85.3547
40
0.500094
50
-89.9895
51
-0.00870732
0
LINE
8
BLACK
6
CONTINUOUS
10
152.941
20
-63.6705
11
140.139
21
-65.9279
0
LINE
8
BLACK
6
CONTINUOUS
10
235.227
20
-28.7048
11
236.314
21
-28.7048
0
ARC
8
BLACK
10
210.272
20
-73.4132
40
0.500173
50
10.0195
51
99.9811
0
LINE
8
BLACK
6
CONTINUOUS
10
6.15075
20
-66.8048
11
19.1507
21
-66.8048
0
ARC
8
BLACK
10
12.056
20
-73.8297
40
1.49996
50
-0.00137514
51
90.0016
0
LINE
8
BLACK
6
CONTINUOUS
10
271.563
20
-52.8048
11
260.944
21
-52.8048
0
LINE
8
BLACK
6
CONTINUOUS
10
229.677
20
-27.8238
11
229.677
21
-14.8238
0
ARC
8
BLACK
10
51.8594
20
-67.0414
40
0.500022
50
-189.997
51
-100.005
0
ARC
8
BLACK
10
194.581
20
-18.1483
40
0.500112
50
-259.987
51
-170.018
0
ARC
8
BLACK
10
198.879
20
-49.9348
40
0.499941
50
-80.007
51
9.99803
0
ARC
8
BLACK
10
224.368
20
-47.2548
40
0.499974
50
-180.003
51
-90.0007
0
ARC
8
BLACK
10
39.0579
20
-47.2547
40
0.500096
50
-89.9891
51
-0.00847815
0
LINE
8
BLACK
6
CONTINUOUS
10
51.3783
20
-8.9507
11
96.4812
21
-16.9031
0
ARC
8
BLACK
10
239.083
20
-72.3548
40
0.500025
50
0.003094
51
90.0003
0
ARC
8
BLACK
10
195.125
20
-76.0839
40
0.500044
50
-259.995
51
-169.998
0
ARC
8
BLACK
10
190.881
20
-32.0012
40
0.499992
50
-80.0008
51
9.99572
0
ARC
8
BLACK
10
234.826
20
-92.8797
40
1.50001
50
0.000381974
51
90.0003
0
LINE
8
BLACK
6
CONTINUOUS
10
239.513
20
-66.8048
11
250.132
21
-66.8048
0
ARC
8
BLACK
10
110.398
20
-64.1628
40
0.499938
50
79.9931
51
170.012
0
LINE
8
BLACK
6
CONTINUOUS
10
45.3445
20
-52.8048
11
32.3445
21
-52.8048
0
LINE
8
BLACK
6
CONTINUOUS
10
102.813
20
-96.3853
11
102.9
21
-95.8929
0
ARC
8
BLACK
10
188.096
20
-77.3232
40
0.499947
50
9.99404
51
100.002
0
ARC
8
BLACK
10
104.326
20
-43.7482
40
0.499932
50
79.9924
51
170.013
0
ARC
8
BLACK
10
50.8963
20
-86.2156
40
0.499882
50
-190.013
51
-99.9877
0
ARC
8
BLACK
10
159.1
20
-43.7485
40
0.50015
50
10.0171
51
99.9804
0
LINE
8
BLACK
6
CONTINUOUS
10
236.314
20
-28.7048
11
242.314
21
-28.7048
0
ARC
8
BLACK
10
-2.018
20
-67.3297
40
5
50
-180
51
-90
0
LINE
8
BLACK
6
CONTINUOUS
10
246.602
20
-8.7984
11
213.782
21
-8.7984
0
ARC
8
BLACK
10
4.6268
20
-47.2547
40
0.500073
50
-179.992
51
-90.0062
0
LINE
8
BLACK
6
CONTINUOUS
10
91.1456
20
-60.7681
11
88.8881
21
-73.5706
0
ARC
8
BLACK
10
244.871
20
-86.3798
40
4.9999
50
-90.0011
51
0.00127199
0
LINE
8
BLACK
6
CONTINUOUS
10
266.69
20
-14.7048
11
266.69
21
-14.2048
0
LINE
8
BLACK
6
CONTINUOUS
10
260.944
20
-52.8048
11
258.563
21
-52.8048
0
LINE
8
BLACK
6
CONTINUOUS
10
37.8435
20
-85.3548
11
37.8435
21
-72.3548
0
ARC
8
BLACK
10
58.5896
20
-48.8844
40
0.499933
50
-100.008
51
-9.98493
0
LINE
8
BLACK
6
CONTINUOUS
10
196.015
20
-56.5832
11
198.272
21
-69.3857
0
LINE
8
BLACK
6
CONTINUOUS
10
152.597
20
-82.0596
11
146.689
21
-83.1015
0
LINE
8
BLACK
6
CONTINUOUS
10
264.062
20
-47.2548
11
264.062
21
-34.2548
0
ARC
8
BLACK
10
18.6745
20
-15.2048
40
0.500026
50
0.003094
51
90.0007
0
LINE
8
BLACK
6
CONTINUOUS
10
106.403
20
-96.0027
11
108.66
21
-83.2002
0
ARC
8
BLACK
10
89.5915
20
-100.679
40
1.50002
50
-189.999
51
-100.003
0
LINE
8
BLACK
6
CONTINUOUS
10
254.302
20
-7.2984
11
254.302
21
-7.2984
0
ARC
8
BLACK
10
169.959
20
-14.8486
40
1.50006
50
-259.998
51
-170.002
0
LINE
8
BLACK
6
CONTINUOUS
10
133.45
20
-22.8104
11
167.265
21
-16.8467
0
LINE
8
BLACK
6
CONTINUOUS
10
212.06
20
-66.9546
11
209.802
21
-54.1521
0
LINE
8
BLACK
6
CONTINUOUS
10
66.5364
20
-88.9733
11
68.7938
21
-76.1708
0
LINE
8
BLACK
6
CONTINUOUS
10
22.3995
20
-94.38
11
25.5998
21
-94.38
0
ARC
8
BLACK
10
251.37
20
-73.8297
40
1.49999
50
89.9997
51
179.999
0
LINE
8
BLACK
6
CONTINUOUS
10
102.675
20
-76.0017
11
104.933
21
-63.1992
0
LINE
8
BLACK
6
CONTINUOUS
10
242.526
20
-92.8797
11
242.526
21
-92.8797
0
LINE
8
BLACK
6
CONTINUOUS
10
83.9148
20
-72.6937
11
86.1723
21
-59.8912
0
ARC
8
BLACK
10
198.765
20
-69.2989
40
0.499952
50
-170.006
51
-79.995
0
ARC
8
BLACK
10
26.2998
20
-7.2988
40
1.49999
50
-180
51
-90.0002
0
LINE
8
BLACK
6
CONTINUOUS
10
174.588
20
-14.0324
11
174.588
21
-14.0324
0
LINE
8
BLACK
6
CONTINUOUS
10
95.221
20
-35.9995
11
97.4784
21
-23.197
0
LINE
8
BLACK
6
CONTINUOUS
10
45.7002
20
-47.1192
11
58.5027
21
-49.3767
0
LINE
8
BLACK
6
CONTINUOUS
10
229.177
20
-14.3238
11
216.177
21
-14.3238
0
LINE
8
BLACK
6
CONTINUOUS
10
123.288
20
-65.9279
11
110.485
21
-63.6705
0
LINE
8
BLACK
6
CONTINUOUS
10
151.015
20
-25.3223
11
138.213
21
-27.5798
0
LINE
8
BLACK
6
CONTINUOUS
10
234.826
20
-91.3797
11
218.822
21
-91.3797
0
LINE
8
BLACK
6
CONTINUOUS
10
249.871
20
-73.8297
11
249.871
21
-86.3797
0
LINE
8
BLACK
6
CONTINUOUS
10
67.0061
20
-56.0039
11
54.2036
21
-53.7465
0
LINE
8
BLACK
6
CONTINUOUS
10
141.042
20
-104.784
11
122.391
21
-104.784
0
ARC
8
BLACK
10
46.6624
20
-14.2368
40
0.500075
50
80.0085
51
169.995
0
ARC
8
BLACK
10
104.441
20
-63.1123
40
0.499938
50
-10.0072
51
80.0155
0
ARC
8
BLACK
10
197.382
20
-88.8864
40
0.500027
50
-169.997
51
-80.0023
0
LINE
8
BLACK
6
CONTINUOUS
10
89.2937
20
-74.1498
11
102.096
21
-76.4072
0
ARC
8
BLACK
10
142.483
20
-79.2228
40
0.500033
50
-169.996
51
-80.0038
0
ARC
8
BLACK
10
161.243
20
-75.9148
40
0.50003
50
-169.997
51
-80.0054
0
ARC
8
BLACK
10
182.044
20
-91.5911
40
0.499926
50
-80.0086
51
10.0132
0
ARC
8
BLACK
10
6.15072
20
-53.3047
40
0.499976
50
-270.003
51
-179.997
0
LINE
8
BLACK
6
CONTINUOUS
10
18.6745
20
-14.7048
11
5.67449
21
-14.7048
0
LINE
8
BLACK
6
CONTINUOUS
10
244.026
20
-91.3797
11
244.871
21
-91.3797
0
LINE
8
BLACK
6
CONTINUOUS
10
184.706
20
-92.6449
11
190.614
21
-91.603
0
LINE
8
BLACK
6
CONTINUOUS
10
79.3002
20
-92.2393
11
81.7313
21
-78.452
0
ARC
8
BLACK
10
167.729
20
-101.757
40
1.50003
50
10.0014
51
99.9973
0
ARC
8
BLACK
10
37.7245
20
-15.2048
40
0.500025
50
0.00297942
51
90.0005
0
LINE
8
BLACK
6
CONTINUOUS
10
86.6498
20
-78.8115
11
83.7266
21
-78.2961
0
LINE
8
BLACK
6
CONTINUOUS
10
72.385
20
-57.4601
11
70.1275
21
-70.2626
0
LINE
8
BLACK
6
CONTINUOUS
10
38.2245
20
-28.2048
11
38.2245
21
-15.2048
0
ARC
8
BLACK
10
171.788
20
-60.8551
40
0.500163
50
10.0186
51
99.981
0
LINE
8
BLACK
6
CONTINUOUS
10
266.19
20
-28.7048
11
267.277
21
-28.7048
0
ARC
8
BLACK
10
5.6745
20
-28.2048
40
0.499976
50
-180.003
51
-90.0007
0
LINE
8
BLACK
6
CONTINUOUS
10
242.314
20
-13.7048
11
236.314
21
-13.7048
0
LINE
8
BLACK
6
CONTINUOUS
10
210.186
20
-72.9206
11
195.038
21
-75.5915
0
LINE
8
BLACK
6
CONTINUOUS
10
65.1543
20
-69.3857
11
67.4117
21
-56.5832
0
ARC
8
BLACK
10
64.6619
20
-69.299
40
0.499926
50
-100.008
51
-9.98309
0
LINE
8
BLACK
6
CONTINUOUS
10
26.058
20
-47.7548
11
39.058
21
-47.7548
0
ARC
8
BLACK
10
70.6198
20
-70.3495
40
0.499892
50
-190.013
51
-99.9857
0
ARC
8
BLACK
10
108.141
20
-76.9655
40
0.499891
50
-190.013
51
-99.9887
0
LINE
8
BLACK
6
CONTINUOUS
10
171.702
20
-60.3625
11
158.899
21
-62.6199
0
ARC
8
BLACK
10
235.227
20
-28.2048
40
0.499973
50
-180.003
51
-90.0007
0
ARC
8
BLACK
10
57.2074
20
-29.2966
40
0.500019
50
-99.9977
51
-10.0075
0
ARC
8
BLACK
10
161.358
20
-56.5508
40
0.499964
50
-80.0039
51
9.99792
0
ARC
8
BLACK
10
84.1836
20
-20.8528
40
0.500101
50
80.0115
51
169.995
0
LINE
8
BLACK
6
CONTINUOUS
10
235.814
20
-14.2048
11
235.814
21
-14.7048
0
LINE
8
BLACK
6
CONTINUOUS
10
202.087
20
-36.1686
11
204.345
21
-48.9711
0
LINE
8
BLACK
6
CONTINUOUS
10
271.563
20
-66.8048
11
273.944
21
-66.8048
0
LINE
8
BLACK
6
CONTINUOUS
10
83.6911
20
-20.7659
11
81.4337
21
-33.5684
0
LINE
8
BLACK
6
CONTINUOUS
10
89.3309
20
-102.157
11
92.4823
21
-102.712
0
LINE
8
BLACK
6
CONTINUOUS
10
158.494
20
-63.1992
11
160.751
21
-76.0017
0
LINE
8
BLACK
6
CONTINUOUS
10
68.3883
20
-75.5915
11
53.2407
21
-72.9206
0
LINE
8
BLACK
6
CONTINUOUS
10
24.3435
20
-85.8548
11
37.3435
21
-85.8548
0
LINE
8
BLACK
6
CONTINUOUS
10
188.01
20
-76.8309
11
182.101
21
-77.8727
0
LINE
8
BLACK
6
CONTINUOUS
10
102.452
20
-24.0739
11
100.194
21
-36.8764
0
ARC
8
BLACK
10
273.944
20
-66.3047
40
0.500095
50
-89.9892
51
-0.00859273
0
ARC
8
BLACK
10
218.821
20
-101.378
40
9.99861
50
89.9994
51
99.9995
0
LINE
8
BLACK
6
CONTINUOUS
10
161.33
20
-76.4072
11
174.133
21
-74.1498
0
LINE
8
BLACK
6
CONTINUOUS
10
81.2956
20
-92.0834
11
96.0066
21
-94.6774
0
ARC
8
BLACK
10
204.837
20
-48.8843
40
0.499962
50
-170.004
51
-79.9956
0
ARC
8
BLACK
10
66.8051
20
-37.1323
40
0.500023
50
80.0027
51
170.004
0
LINE
8
BLACK
6
CONTINUOUS
10
250.062
20
-34.2548
11
250.062
21
-47.2548
0
ARC
8
BLACK
10
81.3824
20
-91.591
40
0.500003
50
-189.999
51
-100.002
0
LINE
8
BLACK
6
CONTINUOUS
10
204.924
20
-49.3767
11
217.726
21
-47.1192
0
ARC
8
BLACK
10
45.3444
20
-66.3047
40
0.500094
50
-89.9889
51
-0.00836361
0
LINE
8
BLACK
6
CONTINUOUS
10
190.462
20
-57.0545
11
177.66
21
-59.3119
0
LINE
8
BLACK
6
CONTINUOUS
10
237.132
20
-66.8048
11
239.513
21
-66.8048
0
LINE
8
BLACK
6
CONTINUOUS
10
37.7245
20
-14.7048
11
24.7245
21
-14.7048
0
LINE
8
BLACK
6
CONTINUOUS
10
258.063
20
-53.3048
11
258.063
21
-66.3048
0
LINE
8
BLACK
6
CONTINUOUS
10
27.0998
20
-92.8766
11
27.0998
21
-92.88
0
LINE
8
BLACK
6
CONTINUOUS
10
153.852
20
-38.5304
11
151.595
21
-25.7279
0
LINE
8
BLACK
6
CONTINUOUS
10
52.6615
20
-73.3262
11
50.404
21
-86.1287
0
LINE
8
BLACK
6
CONTINUOUS
10
19.1745
20
-28.2048
11
19.1745
21
-15.2048
0
LINE
8
BLACK
6
CONTINUOUS
10
154.766
20
-83.2002
11
157.024
21
-96.0027
0
ARC
8
BLACK
10
93.1379
20
-79.4478
40
0.499957
50
-10.0049
51
80.0032
0
LINE
8
BLACK
6
CONTINUOUS
10
181.695
20
-78.452
11
184.126
21
-92.2393
0
LINE
8
BLACK
6
CONTINUOUS
10
19.1507
20
-52.8048
11
6.15074
21
-52.8048
0
ARC
8
BLACK
10
224.368
20
-34.2547
40
0.499904
50
-270.011
51
-179.992
0
LINE
8
BLACK
6
CONTINUOUS
10
172.613
20
-35.2224
11
170.355
21
-22.4199
0
LINE
8
BLACK
6
CONTINUOUS
10
176.326
20
-15.2492
11
212.045
21
-8.95034
0
LINE
8
BLACK
6
CONTINUOUS
10
218.132
20
-46.54
11
215.874
21
-33.7375
0
ARC
8
BLACK
10
179.787
20
-78.7885
40
0.500003
50
10.0004
51
100.002
0
ARC
8
BLACK
10
237.132
20
-53.3047
40
0.499906
50
-270.011
51
-179.992
0
ARC
8
BLACK
10
235.227
20
-15.2047
40
0.499907
50
-270.011
51
-179.992
0
ARC
8
BLACK
10
120.944
20
-79.2229
40
0.500006
50
-99.9996
51
-9.99265
0
LINE
8
BLACK
6
CONTINUOUS
10
176.111
20
-77.9135
11
170.202
21
-78.9554
0
LINE
8
BLACK
6
CONTINUOUS
10
96.3254
20
-95.749
11
102.234
21
-96.7909
0
ARC
8
BLACK
10
102.069
20
-56.5509
40
0.499904
50
-190.011
51
-99.988
0
LINE
8
BLACK
6
CONTINUOUS
10
96.0066
20
-94.6774
11
95.9198
21
-95.1698
0
LINE
8
BLACK
6
CONTINUOUS
10
248.227
20
-28.7048
11
254.277
21
-28.7048
0
ARC
8
BLACK
10
77.3502
20
-52.1924
40
0.499921
50
-100.009
51
-9.98481
0
ARC
8
BLACK
10
89.3803
20
-73.6575
40
0.499872
50
-190.015
51
-99.9759
0
LINE
8
BLACK
6
CONTINUOUS
10
215.677
20
-14.8238
11
215.677
21
-27.8238
0
ARC
8
BLACK
10
267.277
20
-15.2048
40
0.500026
50
0.00297942
51
90.0007
0
ARC
8
BLACK
10
213.782
20
-18.7974
40
9.999
50
89.9995
51
100.001
0
LINE
8
BLACK
6
CONTINUOUS
10
57.6998
20
-29.3835
11
59.9572
21
-16.581
0
LINE
8
BLACK
6
CONTINUOUS
10
164.566
20
-42.7846
11
166.823
21
-55.5871
0
ARC
8
BLACK
10
113.489
20
-39.2206
40
0.500081
50
-99.9906
51
-10.0056
0
ARC
8
BLACK
10
83.3081
20
-53.2429
40
0.499903
50
-190.011
51
-99.9867
0
LINE
8
BLACK
6
CONTINUOUS
10
237.368
20
-33.7548
11
224.368
21
-33.7548
0
LINE
8
BLACK
6
CONTINUOUS
10
39.558
20
-47.2548
11
39.558
21
-34.2548
0
LINE
8
BLACK
6
CONTINUOUS
10
186.163
20
-52.6847
11
198.966
21
-50.4272
0
ARC
8
BLACK
10
81.9261
20
-33.6552
40
0.500038
50
-189.995
51
-100.001
0
LINE
8
BLACK
6
CONTINUOUS
10
157.603
20
-96.4083
11
160.526
21
-95.8929
0
LINE
8
BLACK
6
CONTINUOUS
10
159.013
20
-43.2559
11
146.211
21
-45.5133
0
ARC
8
BLACK
10
25.5998
20
-92.88
40
1.5
50
-90.0002
51
0.000458367
0
ARC
8
BLACK
10
231.082
20
-66.3047
40
0.500094
50
-89.989
51
-0.00836361
0
ARC
8
BLACK
10
18.6744
20
-28.2047
40
0.500095
50
-89.9892
51
-0.00836359
0
ARC
8
BLACK
10
212.53
20
-86.2154
40
0.500041
50
-79.9953
51
9.98693
0
LINE
8
BLACK
6
CONTINUOUS
10
213.022
20
-86.1287
11
210.765
21
-73.3262
0
ARC
8
BLACK
10
148.555
20
-58.8082
40
0.500044
50
-169.995
51
-80.0044
0
ARC
8
BLACK
10
263.562
20
-34.2549
40
0.500126
50
0.0142053
51
89.9834
0
LINE
8
BLACK
6
CONTINUOUS
10
5.17449
20
-15.2048
11
5.1745
21
-28.2048
0
ARC
8
BLACK
10
159.318
20
-37.5667
40
0.499965
50
-170.004
51
-79.9983
0
ARC
8
BLACK
10
95.6974
20
-101.756
40
1.50022
50
80.0085
51
169.991
0
LINE
8
BLACK
6
CONTINUOUS
10
244.752
20
-14.7048
11
242.814
21
-14.7048
0
LINE
8
BLACK
6
CONTINUOUS
10
236.632
20
-53.3048
11
236.632
21
-66.3048
0
ARC
8
BLACK
10
17.6266
20
-34.2549
40
0.500125
50
0.014549
51
89.9835
0
LINE
8
BLACK
6
CONTINUOUS
10
254.277
20
-14.7048
11
248.227
21
-14.7048
0
LINE
8
BLACK
6
CONTINUOUS
10
104.527
20
-62.6199
11
91.7248
21
-60.3625
0
LINE
8
BLACK
6
CONTINUOUS
10
263.562
20
-33.7548
11
250.562
21
-33.7548
0
ARC
8
BLACK
10
249.602
20
-7.2985
40
1.50011
50
90.004
51
179.996
0
LINE
8
BLACK
6
CONTINUOUS
10
63.0787
20
-30.8396
11
75.8812
21
-33.0971
0
ARC
8
BLACK
10
78.8077
20
-92.1524
40
0.500082
50
-99.9907
51
-10.0046
0
ARC
8
BLACK
10
252.513
20
-53.3049
40
0.500125
50
0.0142052
51
89.9835
0
ARC
8
BLACK
10
22.3995
20
-92.88
40
1.49999
50
-180
51
-90.0003
0
LINE
8
BLACK
6
CONTINUOUS
10
224.368
20
-47.7548
11
237.368
21
-47.7548
0
ARC
8
BLACK
10
96.1108
20
-55.5003
40
0.499927
50
-100.008
51
-9.99586
0
LINE
8
BLACK
6
CONTINUOUS
10
225.583
20
-72.3548
11
225.583
21
-85.3548
0
LINE
8
BLACK
6
CONTINUOUS
10
148.642
20
-59.3007
11
161.444
21
-57.0432
0
ARC
8
BLACK
10
167.316
20
-55.5002
40
0.500044
50
-169.995
51
-80.006
0
ARC
8
BLACK
10
274.969
20
-13.7984
40
5
50
2.29183e-05
51
90
0
LINE
8
BLACK
6
CONTINUOUS
10
50.8096
20
-86.7079
11
65.9572
21
-89.3788
0
ARC
8
BLACK
10
91.6379
20
-60.8548
40
0.499923
50
79.9914
51
170.011
0
ARC
8
BLACK
10
161.106
20
-96.2984
40
0.500066
50
-169.992
51
-80.0078
0
LINE
8
BLACK
6
CONTINUOUS
10
141.188
20
-99.3028
11
155.202
21
-96.8317
0
ARC
8
BLACK
10
37.3434
20
-85.3547
40
0.500094
50
-89.9891
51
-0.00859275
0
ARC
8
BLACK
10
172.12
20
-35.3092
40
0.500006
50
-79.9994
51
9.99555
0
ARC
8
BLACK
10
86.6367
20
-100.159
40
1.50018
50
-9.99302
51
79.99
0
ARC
8
BLACK
10
19.1506
20
-53.3049
40
0.500124
50
0.0144344
51
89.9836
0
LINE
8
BLACK
6
CONTINUOUS
10
81.8393
20
-34.1476
11
94.6418
21
-36.4051
0
ARC
8
BLACK
10
131.713
20
-12.9624
40
9.99997
50
-100.002
51
-79.998
0
ARC
8
BLACK
10
102.183
20
-75.9149
40
0.499922
50
-100.009
51
-9.99434
0
ARC
8
BLACK
10
45.7873
20
-46.6267
40
0.50017
50
-189.98
51
-100.025
0
LINE
8
BLACK
6
CONTINUOUS
10
155.608
20
-96.2525
11
153.177
21
-82.4651
0
ARC
8
BLACK
10
155.259
20
-83.1134
40
0.499992
50
-260.001
51
-169.997
0
ARC
8
BLACK
10
18.556
20
-86.38
40
4.99998
50
-180
51
-90
0
LINE
8
BLACK
6
CONTINUOUS
10
239.513
20
-52.8048
11
237.132
21
-52.8048
0
LINE
8
BLACK
6
CONTINUOUS
10
77.8426
20
-52.2791
11
80.1
21
-39.4766
0
LINE
8
BLACK
6
CONTINUOUS
10
231.082
20
-52.8048
11
218.082
21
-52.8048
0
LINE
8
BLACK
6
CONTINUOUS
10
20.8995
20
-92.88
11
20.8995
21
-92.88
0
LINE
8
BLACK
6
CONTINUOUS
10
178.165
20
-34.7511
11
190.968
21
-32.4936
0
LINE
8
BLACK
6
CONTINUOUS
10
174.538
20
-73.5706
11
172.281
21
-60.7681
0
ARC
8
BLACK
10
241.026
20
-92.8796
40
1.5001
50
-89.9963
51
-0.00339933
0
ARC
8
BLACK
10
218.082
20
-66.3048
40
0.499972
50
-180.003
51
-90.0008
0
ARC
8
BLACK
10
176.79
20
-100.159
40
1.50009
50
-259.997
51
-170.005
0
ARC
8
BLACK
10
92.7428
20
-101.235
40
1.49999
50
-100
51
-9.99933
0
ARC
8
BLACK
10
63.1655
20
-30.3472
40
0.500041
50
-189.995
51
-99.9998
0
ARC
8
BLACK
10
100.687
20
-36.9632
40
0.500038
50
-189.996
51
-100.003
0
ARC
8
BLACK
10
170.289
20
-79.4478
40
0.499983
50
-260.002
51
-169.996
0
LINE
8
BLACK
6
CONTINUOUS
10
169.776
20
-22.0143
11
156.973
21
-24.2718
0
LINE
8
BLACK
6
CONTINUOUS
10
209.223
20
-53.7465
11
196.42
21
-56.0039
0
LINE
8
BLACK
6
CONTINUOUS
10
70.5331
20
-70.8418
11
83.3356
21
-73.0992
0
ARC
8
BLACK
10
252.802
20
-7.2983
40
1.4999
50
-0.00366694
51
90.0002
0
ARC
8
BLACK
10
105.91
20
-95.9159
40
0.500055
50
-99.9938
51
-10.0017
0
ARC
8
BLACK
10
66.9193
20
-56.4963
40
0.499959
50
-10.0048
51
80.0016
0
LINE
8
BLACK
6
CONTINUOUS
10
97.0728
20
-22.6178
11
84.2703
21
-20.3603
0
LINE
8
BLACK
6
CONTINUOUS
10
110.25
20
-82.4651
11
107.819
21
-96.2525
0
LINE
8
BLACK
6
CONTINUOUS
10
267.277
20
-14.7048
11
266.69
21
-14.7048
0
ARC
8
BLACK
10
45.3445
20
-53.3048
40
0.500024
50
0.00286482
51
90.0008
0
ARC
8
BLACK
10
226.083
20
-85.3548
40
0.499975
50
-180.003
51
-90.0008
0
ARC
8
BLACK
10
23.2998
20
-7.2988
40
1.5
50
0.000152789
51
90.0002
0
LINE
8
BLACK
6
CONTINUOUS
10
169.796
20
-79.5347
11
169.883
21
-80.0271
0
LINE
8
BLACK
6
CONTINUOUS
10
176.777
20
-78.8115
11
176.69
21
-78.3191
0
LINE
8
BLACK
6
CONTINUOUS
10
100.6
20
-37.4556
11
113.402
21
-39.7131
0
LINE
8
BLACK
6
CONTINUOUS
10
4.62675
20
-47.7548
11
17.6267
21
-47.7548
0
LINE
8
BLACK
6
CONTINUOUS
10
255.802
20
-8.7984
11
274.97
21
-8.7984
0
LINE
8
BLACK
6
CONTINUOUS
10
235.814
20
-14.7048
11
235.227
21
-14.7048
0
LINE
8
BLACK
6
CONTINUOUS
10
223.868
20
-34.2548
11
223.868
21
-47.2548
0
LINE
8
BLACK
6
CONTINUOUS
10
279.97
20
-13.7984
11
279.97
21
-67.3297
0
ARC
8
BLACK
10
72.8989
20
-91.1106
40
0.499961
50
-190.004
51
-99.9977
0
LINE
8
BLACK
6
CONTINUOUS
10
139.733
20
-66.5072
11
141.99
21
-79.3097
0
LINE
8
BLACK
6
CONTINUOUS
10
250.132
20
-66.8048
11
252.513
21
-66.8048
0
ARC
8
BLACK
10
169.863
20
-22.5067
40
0.499967
50
9.996
51
100.002
0
LINE
8
BLACK
6
CONTINUOUS
10
169.883
20
-80.0271
11
155.172
21
-82.621
0
ARC
8
BLACK
10
173.835
20
-100.68
40
1.49996
50
-80.0014
51
9.99884
0
ARC
8
BLACK
10
188.623
20
-19.1987
40
0.499968
50
9.99633
51
100.004
0
ARC
8
BLACK
10
229.177
20
-14.8238
40
0.500025
50
0.00286483
51
90.0007
0
LINE
8
BLACK
6
CONTINUOUS
10
156.568
20
-24.851
11
158.825
21
-37.6535
0
LINE
8
BLACK
6
CONTINUOUS
10
101.982
20
-57.0432
11
114.784
21
-59.3007
0
ARC
8
BLACK
10
105.802
20
-17.0236
40
1.49987
50
-190.005
51
-99.9946
0
LINE
8
BLACK
6
CONTINUOUS
10
175.312
20
-100.419
11
175.312
21
-100.419
0
LINE
8
BLACK
6
CONTINUOUS
10
239.083
20
-71.8548
11
226.083
21
-71.8548
0
LINE
8
BLACK
6
CONTINUOUS
10
13.556
20
-86.38
11
13.556
21
-73.8297
0
LINE
8
BLACK
6
CONTINUOUS
10
51.7725
20
-67.5338
11
64.575
21
-69.7912
0
LINE
8
BLACK
6
CONTINUOUS
10
28.6001
20
-91.3766
11
44.6027
21
-91.3788
0
ARC
8
BLACK
10
87.2289
20
-78.4058
40
0.499859
50
79.984
51
170.014
0
ARC
8
BLACK
10
141.101
20
-98.8106
40
0.499847
50
-170.017
51
-79.9827
0
ARC
8
BLACK
10
19.3995
20
-92.88
40
1.50001
50
0.000381974
51
90.0002
0
LINE
8
BLACK
6
CONTINUOUS
10
159.404
20
-38.0591
11
172.207
21
-35.8016
0
ARC
8
BLACK
10
255.802
20
-7.2983
40
1.5001
50
-179.996
51
-90.0003
0
LINE
8
BLACK
6
CONTINUOUS
10
172.85
20
-12.8157
11
169.699
21
-13.3713
0
LINE
8
BLACK
6
CONTINUOUS
10
241.026
20
-94.3797
11
237.826
21
-94.3797
0
LINE
8
BLACK
6
CONTINUOUS
10
-7.018
20
-67.3297
11
-7.018
21
-13.7984
0
LINE
8
BLACK
6
CONTINUOUS
10
72.8121
20
-91.603
11
78.7209
21
-92.6449
0
LINE
8
BLACK
6
CONTINUOUS
10
180.091
20
-73.0992
11
192.893
21
-70.8418
0
LINE
8
BLACK
6
CONTINUOUS
10
24.2245
20
-15.2048
11
24.2245
21
-28.2048
0
LINE
8
BLACK
6
CONTINUOUS
10
267.777
20
-28.2048
11
267.777
21
-15.2048
0
ARC
8
BLACK
10
96.7414
20
-15.4256
40
1.50031
50
-99.9884
51
-10.0102
0
ARC
8
BLACK
10
140.557
20
-40.8747
40
0.499966
50
-170.004
51
-79.9968
0
LINE
8
BLACK
6
CONTINUOUS
10
167.403
20
-55.9927
11
180.205
21
-53.7352
0
ARC
8
BLACK
10
180.004
20
-72.6068
40
0.500029
50
-169.997
51
-80.0067
0
ARC
8
BLACK
10
250.562
20
-34.2549
40
0.500055
50
90.0062
51
179.985
0
ARC
8
BLACK
10
53.1538
20
-73.4129
40
0.499926
50
79.9917
51
170.011
0
LINE
8
BLACK
6
CONTINUOUS
10
60.9338
20
-35.5894
11
48.1313
21
-33.3319
0
LINE
8
BLACK
6
CONTINUOUS
10
-2.018
20
-8.7984
11
17.0995
21
-8.7988
0
ARC
8
BLACK
10
108.168
20
-83.1134
40
0.499972
50
-10.003
51
80.0021
0
LINE
8
BLACK
6
CONTINUOUS
10
93.5434
20
-80.0271
11
93.6303
21
-79.5347
0
ARC
8
BLACK
10
207.384
20
-15.8907
40
0.499965
50
9.99612
51
100.005
0
LINE
8
BLACK
6
CONTINUOUS
10
234.727
20
-15.2048
11
234.727
21
-28.2048
0
ARC
8
BLACK
10
231.082
20
-53.3048
40
0.500025
50
0.00309402
51
90.0008
0
ARC
8
BLACK
10
246.602
20
-7.2984
40
1.49999
50
-90.0002
51
0.000152789
0
ARC
8
BLACK
10
48.0445
20
-33.8243
40
0.500009
50
80.0015
51
170.004
0
LINE
8
BLACK
6
CONTINUOUS
10
96.6031
20
-55.5871
11
98.8606
21
-42.7846
0
ARC
8
BLACK
10
155.285
20
-76.9653
40
0.500056
50
-79.9939
51
9.98618
0
LINE
8
BLACK
6
CONTINUOUS
10
104.325
20
-16.763
11
104.325
21
-16.763
0
LINE
8
BLACK
6
CONTINUOUS
10
4.12675
20
-34.2548
11
4.12675
21
-47.2548
0
LINE
8
BLACK
6
CONTINUOUS
10
250.132
20
-52.8048
11
239.513
21
-52.8048
0
ARC
8
BLACK
10
64.5478
20
-49.9347
40
0.500152
50
-189.982
51
-100.015
0
LINE
8
BLACK
6
CONTINUOUS
10
177.774
20
-39.9479
11
164.972
21
-42.2053
0
ARC
8
BLACK
10
273.945
20
-53.3048
40
0.500027
50
0.00297942
51
90.0007
0
LINE
8
BLACK
6
CONTINUOUS
10
198.851
20
-69.7912
11
211.654
21
-67.5338
0
ARC
8
BLACK
10
4.62673
20
-34.2548
40
0.499984
50
-270.001
51
-179.997
0
ARC
8
BLACK
10
216.177
20
-27.8238
40
0.499975
50
-180.003
51
-90.0006
0
LINE
8
BLACK
6
CONTINUOUS
10
53.6244
20
-54.1521
11
51.367
21
-66.9546
0
ARC
8
BLACK
10
79.6076
20
-39.3897
40
0.499943
50
-10.0068
51
80.0021
0
ARC
8
BLACK
10
122.326
20
-98.8103
40
0.500087
50
-99.99
51
-10.0126
0
ARC
8
BLACK
10
155.115
20
-96.3394
40
0.499896
50
-80.0116
51
10.0162
0
LINE
8
BLACK
6
CONTINUOUS
10
160.526
20
-95.8929
11
160.613
21
-96.3853
0
LINE
8
BLACK
6
CONTINUOUS
10
103.108
20
-15.0253
11
99.9566
21
-14.4696
0
ARC
8
BLACK
10
244.027
20
-92.8798
40
1.5001
50
90.0041
51
179.996
0
LINE
8
BLACK
6
CONTINUOUS
10
19.6507
20
-66.3048
11
19.6507
21
-53.3048
0
ARC
8
BLACK
10
24.3434
20
-72.3547
40
0.499906
50
-270.011
51
-179.992
0
ARC
8
BLACK
10
218.082
20
-53.3047
40
0.499905
50
-270.011
51
-179.992
0
LINE
8
BLACK
6
CONTINUOUS
10
197.469
20
-89.3788
11
212.617
21
-86.7079
0
ARC
8
BLACK
10
81.239
20
-78.3651
40
0.499928
50
-10.008
51
80.0164
0
LINE
8
BLACK
6
CONTINUOUS
10
180.611
20
-53.156
11
178.353
21
-40.3535
0
ARC
8
BLACK
10
252.513
20
-66.3048
40
0.500044
50
-89.9948
51
0.00297912
0
ARC
8
BLACK
10
226.083
20
-72.3547
40
0.499907
50
-270.011
51
-179.992
0
LINE
8
BLACK
6
CONTINUOUS
10
23.8435
20
-72.3548
11
23.8435
21
-85.3548
0
ARC
8
BLACK
10
190.549
20
-57.5471
40
0.500164
50
10.0186
51
99.9826
0
ARC
8
BLACK
10
116.651
20
-83.5939
40
0.500042
50
-9.99478
51
79.9968
0
LINE
8
BLACK
6
CONTINUOUS
10
194.633
20
-76.1708
11
196.89
21
-88.9733
0
LINE
8
BLACK
6
CONTINUOUS
10
196.535
20
-36.6399
11
183.732
21
-38.8973
0
LINE
8
BLACK
6
CONTINUOUS
10
177.254
20
-59.8912
11
179.512
21
-72.6937
0
ARC
8
BLACK
10
146.775
20
-83.594
40
0.500118
50
-259.986
51
-170.019
0
LINE
8
BLACK
6
CONTINUOUS
10
103.834
20
-43.6615
11
101.576
21
-56.464
0
ARC
8
BLACK
10
158.986
20
-63.1123
40
0.499975
50
-260.003
51
-169.995
0
LINE
8
BLACK
6
CONTINUOUS
10
175.328
20
-21.543
11
177.586
21
-34.3455
0
LINE
8
BLACK
6
CONTINUOUS
10
59.5517
20
-16.0018
11
46.7492
21
-13.7443
0
ARC
8
BLACK
10
196.621
20
-37.1324
40
0.500068
50
10.0079
51
99.9966
0
ARC
8
BLACK
10
170.684
20
-101.236
40
1.50001
50
-170
51
-80.0006
0
LINE
8
BLACK
6
CONTINUOUS
10
74.8376
20
-77.2364
11
72.4065
21
-91.0237
0
ARC
8
BLACK
10
6.1508
20
-66.3047
40
0.500073
50
-179.991
51
-90.0062
0
ARC
8
BLACK
10
17.6267
20
-47.2548
40
0.500024
50
-89.9971
51
-0.00275007
0
ARC
8
BLACK
10
123.201
20
-66.4204
40
0.50007
50
-9.99229
51
79.9964
0
ARC
8
BLACK
10
17.0995
20
-7.29875
40
1.50004
50
-89.9983
51
-0.00168063
0
LINE
8
BLACK
6
CONTINUOUS
10
169.207
20
-101.496
11
169.207
21
-101.496
0
ARC
8
BLACK
10
190.528
20
-91.1107
40
0.499887
50
-80.0128
51
10.0181
0
ARC
8
BLACK
10
176.197
20
-78.4059
40
0.499958
50
9.99535
51
100.004
0
LINE
8
BLACK
6
CONTINUOUS
10
252.802
20
-5.7984
11
249.602
21
-5.7984
0
ARC
8
BLACK
10
24.7245
20
-28.2048
40
0.499973
50
-180.003
51
-90.0007
0
ARC
8
BLACK
10
28.5997
20
-92.8766
40
1.49993
50
-270.015
51
-179.998
0
LINE
8
BLACK
6
CONTINUOUS
10
113.982
20
-39.3075
11
116.239
21
-26.505
0
LINE
8
BLACK
6
CONTINUOUS
10
47.5521
20
-33.7375
11
45.2947
21
-46.54
0
LINE
8
BLACK
6
CONTINUOUS
10
117.216
20
-45.5133
11
104.413
21
-43.2559
0
ARC
8
BLACK
10
37.3435
20
-72.3548
40
0.500027
50
0.00286482
51
90.0006
0
LINE
8
BLACK
6
CONTINUOUS
10
86.8975
20
-98.6813
11
46.3375
21
-91.5307
0
ARC
8
BLACK
10
153.359
20
-38.6172
40
0.500016
50
-79.998
51
9.99569
0
LINE
8
BLACK
6
CONTINUOUS
10
26.2998
20
-8.79879
11
49.6419
21
-8.7988
0
ARC
8
BLACK
10
177.861
20
-40.4404
40
0.50007
50
10.008
51
99.9952
0
ARC
8
BLACK
10
39.058
20
-34.2548
40
0.500027
50
0.00286482
51
90.0008
0
ARC
8
BLACK
10
102.944
20
-24.1609
40
0.500128
50
80.0148
51
169.983
0
ARC
8
BLACK
10
267.277
20
-28.2047
40
0.500095
50
-89.9888
51
-0.00836359
0
LINE
8
BLACK
6
CONTINUOUS
10
260.19
20
-28.7048
11
266.19
21
-28.7048
0
ARC
8
BLACK
10
242.314
20
-14.2048
40
0.500027
50
0.00297942
51
90.0006
0
ARC
8
BLACK
10
167.014
20
-95.2567
40
0.499912
50
-80.0098
51
10.0148
0
LINE
8
BLACK
6
CONTINUOUS
10
31.8445
20
-53.3048
11
31.8445
21
-66.3048
0
ARC
8
BLACK
10
266.19
20
-14.2048
40
0.500028
50
0.00286482
51
90.0006
0
LINE
8
BLACK
6
CONTINUOUS
10
257.752
20
-28.7048
11
260.19
21
-28.7048
0
ARC
8
BLACK
10
65.423
20
-17.5448
40
0.500088
50
80.0099
51
169.995
0
ARC
8
BLACK
10
192.807
20
-70.3495
40
0.499964
50
-80.0041
51
10.0105
0
ARC
8
BLACK
10
117.129
20
-46.0057
40
0.499942
50
-10.0065
51
80.0049
0
LINE
8
BLACK
6
CONTINUOUS
10
108.224
20
-96.8317
11
122.239
21
-99.3028
0
ARC
8
BLACK
10
182.188
20
-78.3651
40
0.499966
50
-260.004
51
-169.994
0
ARC
8
BLACK
10
258.563
20
-53.3049
40
0.500057
50
90.0064
51
179.985
0
ARC
8
BLACK
10
183.819
20
-39.3897
40
0.499993
50
-260.001
51
-169.993
0
LINE
8
BLACK
6
CONTINUOUS
10
174.096
20
-102.157
11
170.944
21
-102.713
0
LINE
8
BLACK
6
CONTINUOUS
10
122.818
20
-98.8972
11
125.076
21
-86.0947
0
LINE
8
BLACK
6
CONTINUOUS
10
258.563
20
-66.8048
11
260.944
21
-66.8048
0
ARC
8
BLACK
10
274.969
20
-67.3297
40
5
50
-90
51
0.000171887
0
LINE
8
BLACK
6
CONTINUOUS
10
88.1142
20
-100.419
11
88.1142
21
-100.419
0
LINE
8
BLACK
6
CONTINUOUS
10
226.083
20
-85.8548
11
239.083
21
-85.8548
0
LINE
8
BLACK
6
CONTINUOUS
10
191.373
20
-31.9144
11
189.116
21
-19.1119
0
ARC
8
BLACK
10
215.382
20
-33.8243
40
0.499968
50
9.99666
51
100
0
ARC
8
BLACK
10
196.839
20
-30.9507
40
0.499965
50
-170.004
51
-80.0009
0
LINE
8
BLACK
6
CONTINUOUS
10
85.0733
20
-40.3535
11
82.8158
21
-53.156
0
ARC
8
BLACK
10
236.314
20
-14.2047
40
0.499904
50
-270.011
51
-179.992
0
LINE
8
BLACK
6
CONTINUOUS
10
146.283
20
-83.6807
11
146.37
21
-84.1731
0
LINE
8
BLACK
6
CONTINUOUS
10
260.944
20
-66.8048
11
271.563
21
-66.8048
0
ARC
8
BLACK
10
178.078
20
-34.2587
40
0.499965
50
-170.004
51
-79.9991
0
LINE
8
BLACK
6
CONTINUOUS
10
78.3122
20
-19.3098
11
65.5097
21
-17.0523
0
ARC
8
BLACK
10
19.1507
20
-66.3048
40
0.500043
50
-89.995
51
0.00297912
0
ARC
8
BLACK
10
250.562
20
-47.2547
40
0.500075
50
-179.992
51
-90.0065
0
CIRCLE
8
BLACK
10
23.9995
20
-92.0799
40
1.1
0
CIRCLE
8
BLACK
10
91.3059
20
-100.169
40
1.1
0
CIRCLE
8
BLACK
10
172.121
20
-100.17
40
1.1
0
CIRCLE
8
BLACK
10
239.426
20
-92.0796
40
1.1
0
CIRCLE
8
BLACK
10
251.202
20
-8.09794
40
1.1
0
CIRCLE
8
BLACK
10
171.674
20
-15.3586
40
1.1
0
CIRCLE
8
BLACK
10
101.133
20
-17.0125
40
1.1
0
CIRCLE
8
BLACK
10
21.6995
20
-8.09882
40
1.1
  0
ENDSEC
  0
EOF
